<?xml version="1.0" standalone="no"?>
<!DOCTYPE svg PUBLIC "-//W3C//DTD SVG 20010904//EN"
 "http://www.w3.org/TR/2001/REC-SVG-20010904/DTD/svg10.dtd">
<svg version="1.0" xmlns="http://www.w3.org/2000/svg"
 width="514.000000pt" height="514.000000pt" viewBox="0 0 514.000000 514.000000"
 preserveAspectRatio="xMidYMid meet">
<metadata>
Created by potrace 1.11, written by Peter Selinger 2001-2013
</metadata>
<g transform="translate(0.000000,514.000000) scale(0.100000,-0.100000)"
fill="#000000" stroke="none">
<path d="M2510 5132 c0 -4 -24 -16 -52 -27 -29 -10 -62 -24 -73 -32 -11 -7
-28 -13 -39 -13 -11 0 -40 -10 -65 -22 -25 -13 -66 -29 -90 -38 -100 -34 -114
-146 -23 -181 12 -5 25 -17 28 -26 8 -25 28 -79 52 -140 l20 -52 -30 -6 c-22
-5 -35 -2 -52 14 -31 29 -44 27 -88 -16 -33 -33 -38 -35 -38 -16 0 11 9 40 20
64 11 24 20 65 20 90 0 40 -4 49 -27 65 -28 19 -129 35 -230 36 -41 1 -53 5
-53 17 0 27 -36 77 -72 99 -29 18 -44 20 -106 15 -62 -5 -76 -10 -92 -31 -11
-13 -35 -27 -52 -31 -28 -5 -43 -21 -95 -99 -53 -79 -63 -100 -63 -137 0 -40
4 -47 50 -87 27 -24 50 -51 50 -60 0 -9 -14 -26 -30 -38 -37 -26 -62 -73 -58
-107 3 -28 17 -38 61 -48 34 -7 45 -31 24 -53 -15 -15 -19 -15 -52 1 -55 26
-79 22 -112 -19 l-29 -36 -32 16 c-17 9 -36 16 -43 16 -6 0 -27 13 -45 30 -30
26 -39 29 -79 24 -30 -5 -57 -1 -85 10 -48 19 -73 15 -150 -25 -30 -16 -68
-31 -85 -35 -42 -8 -111 -83 -125 -136 -6 -24 -16 -57 -21 -74 -14 -47 -12
-57 26 -120 44 -73 44 -84 2 -84 -41 0 -103 -38 -179 -111 -40 -38 -58 -62
-58 -80 0 -13 -12 -42 -27 -64 -19 -28 -26 -50 -24 -78 3 -56 -7 -77 -43 -92
-57 -24 -195 -143 -201 -173 -3 -15 -11 -44 -17 -64 -15 -50 -4 -162 20 -218
38 -87 91 -113 148 -72 23 16 52 21 135 26 62 4 117 2 132 -3 27 -11 81 -101
75 -126 -2 -7 -23 -28 -48 -47 -57 -43 -72 -87 -43 -126 11 -14 34 -30 51 -34
18 -5 32 -13 32 -18 0 -11 -53 -40 -73 -40 -28 0 -94 40 -105 64 -17 37 -64
58 -125 54 -56 -3 -47 5 -121 -114 -28 -44 -30 -57 -34 -162 -4 -104 -3 -117
18 -155 36 -66 49 -77 91 -77 46 0 56 -13 35 -45 -9 -14 -21 -68 -27 -124 -10
-87 -10 -105 5 -141 9 -23 14 -50 11 -60 -4 -13 6 -32 32 -61 l38 -42 3 -104
4 -103 33 -25 c18 -15 35 -38 38 -54 5 -23 25 -42 99 -90 54 -35 104 -61 120
-61 34 0 78 51 78 91 0 16 3 29 8 29 4 0 22 -29 41 -65 34 -64 34 -65 16 -85
-23 -26 -23 -73 3 -180 17 -74 18 -75 71 -107 29 -17 71 -35 93 -38 22 -4 56
-18 76 -31 54 -37 108 -49 138 -29 13 8 26 26 30 40 8 33 21 23 34 -24 5 -21
26 -59 45 -84 44 -58 46 -87 6 -87 -46 0 -61 -10 -61 -40 0 -33 21 -53 52 -48
19 3 38 26 51 63 2 6 12 6 28 -2 13 -6 32 -14 43 -17 14 -5 17 -12 11 -29 -19
-59 -16 -92 12 -134 78 -114 115 -163 126 -164 33 -2 51 -9 73 -30 20 -19 30
-21 78 -15 107 12 156 27 172 51 8 12 19 60 24 105 5 46 14 88 19 93 15 15 49
-2 77 -38 l26 -34 -21 -29 c-62 -87 -43 -139 87 -238 74 -55 92 -64 118 -60
18 2 49 -2 70 -9 28 -9 45 -10 64 -3 14 6 41 14 60 17 30 5 39 13 63 63 26 52
29 69 34 197 6 130 11 158 28 131 3 -6 24 -10 46 -10 21 0 39 -2 39 -5 0 -40
-29 -119 -57 -155 -29 -38 -34 -51 -30 -82 8 -58 40 -94 105 -118 31 -12 65
-28 74 -37 12 -11 27 -13 50 -8 42 8 77 9 109 0 19 -5 33 -1 55 17 16 13 50
32 75 41 62 24 103 68 102 111 -1 48 -27 90 -77 127 -25 17 -47 37 -49 43 -8
21 10 165 22 180 6 8 28 17 49 21 20 3 46 9 58 11 15 4 28 -4 47 -30 l27 -35
-21 -41 c-32 -61 -23 -124 25 -167 26 -24 45 -33 71 -33 20 0 50 -7 66 -16 31
-16 104 -12 143 8 14 8 25 3 50 -21 29 -29 37 -31 100 -31 62 0 72 3 103 30
18 16 42 30 52 30 21 0 49 29 86 90 15 25 46 66 69 91 112 126 166 222 146
259 -16 29 -80 80 -101 80 -26 0 -99 37 -99 51 0 6 15 25 34 42 23 22 36 45
41 75 11 65 130 191 157 164 5 -5 13 -47 18 -94 5 -51 17 -102 29 -126 19 -37
25 -41 68 -47 27 -3 64 -10 83 -15 59 -15 158 -22 165 -11 3 6 23 15 45 21 56
15 146 103 158 155 16 70 33 159 39 202 8 64 -11 85 -135 144 -59 28 -115 58
-124 66 -21 19 -24 43 -5 43 28 0 47 36 47 86 0 44 3 51 31 66 17 10 38 35 47
56 14 33 23 40 59 48 55 13 63 4 56 -58 -6 -46 -4 -51 28 -84 52 -54 73 -48
184 54 53 48 103 98 111 110 9 13 18 49 21 80 7 63 47 146 96 199 25 27 30 43
38 114 5 46 11 85 13 87 3 2 -6 34 -20 70 -16 47 -36 78 -63 105 -46 43 -72
46 -104 14 -20 -20 -30 -22 -102 -19 -48 2 -102 -3 -135 -12 -30 -8 -58 -12
-62 -10 -21 13 4 114 27 114 20 0 74 48 90 80 8 16 24 32 36 35 26 8 49 61 49
112 0 67 9 82 49 88 67 10 152 35 178 52 14 10 32 32 39 50 19 43 18 143 -1
167 -8 11 -15 32 -15 46 0 24 -9 41 -65 116 -8 11 -19 52 -24 91 -10 82 -28
121 -73 157 -128 103 -158 132 -153 146 4 8 3 43 -1 79 -6 53 -12 70 -40 101
-19 21 -34 42 -34 48 0 6 -13 26 -29 44 -48 56 -73 115 -66 158 6 33 3 40 -23
62 -16 13 -42 30 -58 36 -16 7 -38 29 -49 49 -15 27 -29 39 -55 45 -47 12 -63
33 -100 131 -53 142 -59 151 -110 186 -44 30 -69 39 -162 58 -15 3 -56 -5 -93
-17 -58 -19 -69 -27 -81 -56 -8 -18 -14 -42 -14 -53 0 -25 -19 -31 -79 -24
-34 4 -62 0 -93 -11 -43 -17 -44 -17 -88 8 -26 15 -61 26 -82 26 -30 0 -42 -7
-71 -41 -26 -30 -41 -40 -59 -37 -22 3 -23 7 -20 61 5 70 -8 89 -86 123 -29
13 -55 31 -59 39 -6 19 21 51 60 71 37 20 87 91 87 125 0 21 -20 48 -81 113
-77 82 -83 86 -124 86 -24 0 -57 8 -73 17 -29 17 -34 16 -133 -10 -57 -14
-114 -29 -126 -33 -16 -4 -25 1 -39 23 -44 70 -49 73 -151 73 -51 0 -93 -4
-93 -8z m741 -202 c26 -14 26 -60 0 -60 -21 0 -35 15 -45 48 -8 25 11 30 45
12z m-121 -26 c0 -14 -3 -14 -15 -4 -8 7 -15 14 -15 16 0 2 7 4 15 4 8 0 15
-7 15 -16z m-650 -45 c0 -10 -4 -19 -9 -19 -12 0 -23 29 -15 41 8 14 24 0 24
-22z m-829 8 c-1 -12 -15 -9 -19 4 -3 6 1 10 8 8 6 -3 11 -8 11 -12z m90 -230
l-21 -21 0 21 c0 12 8 26 18 32 26 15 28 -7 3 -32z m67 -54 c-4 -34 -28 -43
-28 -10 0 25 7 37 22 37 5 0 8 -12 6 -27z m912 2 c23 -8 57 -15 76 -15 25 0
38 -7 54 -30 12 -16 28 -30 37 -30 9 0 30 -9 49 -20 18 -12 72 -32 119 -46 80
-23 93 -24 159 -14 60 10 78 9 115 -4 24 -9 52 -16 62 -16 22 0 60 -68 61
-111 1 -16 -5 -37 -13 -47 -29 -36 -40 -65 -44 -114 -3 -28 -11 -58 -19 -67
-19 -21 -31 -71 -17 -71 6 0 17 -13 25 -29 13 -24 23 -29 67 -34 55 -7 89 5
142 49 16 13 34 24 42 24 7 0 16 12 20 28 8 33 53 82 75 82 9 0 25 9 35 20 10
11 27 20 37 20 24 0 110 -71 129 -106 7 -14 32 -37 55 -50 23 -14 45 -32 48
-40 9 -24 -4 -63 -25 -75 -28 -15 -23 -40 17 -92 39 -50 76 -62 99 -31 18 25
50 9 86 -44 31 -45 31 -48 19 -95 -8 -33 -9 -52 -2 -59 13 -13 32 -2 32 17 0
8 9 19 20 25 15 8 20 21 20 54 0 30 6 48 20 61 18 17 21 17 45 1 30 -20 34
-69 9 -105 -20 -28 -10 -39 41 -43 35 -3 40 -6 43 -30 4 -33 -32 -105 -56
-112 -11 -4 -24 -18 -31 -32 -16 -35 -28 -28 -64 39 -29 54 -47 72 -47 45 1
-7 7 -24 15 -38 8 -14 14 -37 15 -52 0 -16 9 -37 20 -48 11 -11 20 -27 20 -36
0 -9 17 -42 38 -75 32 -50 41 -59 68 -59 16 0 35 -5 42 -12 16 -16 15 -67 -3
-102 -8 -15 -15 -44 -15 -62 0 -35 -5 -40 -29 -25 -9 6 -35 -2 -79 -25 -75
-39 -87 -41 -102 -14 -10 18 -14 19 -43 7 -28 -12 -31 -17 -29 -49 2 -20 -1
-39 -7 -43 -17 -10 -13 -71 7 -95 25 -30 79 -47 127 -39 51 9 116 0 136 -18 9
-8 30 -18 45 -22 21 -5 32 -17 40 -41 18 -54 65 -64 112 -25 35 29 42 31 42 9
0 -9 -25 -40 -55 -69 -47 -46 -55 -60 -55 -90 0 -45 -15 -75 -38 -75 -26 0
-51 -59 -58 -141 -6 -62 -5 -73 15 -99 26 -36 27 -60 2 -108 -11 -21 -27 -67
-36 -102 -9 -35 -23 -77 -31 -92 -13 -26 -19 -28 -70 -27 -52 2 -55 3 -69 35
-17 42 -43 46 -38 7 3 -16 -1 -41 -7 -57 -8 -23 -13 -27 -23 -17 -9 9 -9 14 2
20 12 8 12 14 2 39 -7 17 -10 35 -7 41 4 6 0 23 -8 39 -14 27 -21 30 -88 37
-40 4 -84 8 -97 9 -32 1 -38 24 -12 42 27 19 29 72 4 81 -10 3 -29 15 -42 27
-23 21 -23 21 -35 1 -6 -11 -26 -33 -43 -50 -18 -18 -33 -37 -33 -43 0 -24
-20 -11 -26 16 -10 45 -13 52 -24 52 -14 0 -13 -23 2 -38 9 -9 8 -16 -5 -30
-9 -10 -17 -28 -17 -39 0 -11 -6 -26 -14 -32 -8 -7 -18 -38 -21 -69 -4 -31
-14 -67 -22 -80 -13 -21 -13 -25 2 -35 14 -11 13 -16 -14 -52 -36 -48 -40 -67
-8 -37 13 12 28 22 34 22 5 0 18 9 28 20 10 11 26 20 36 20 10 0 21 5 25 11 9
15 53 2 87 -27 21 -17 37 -24 53 -20 22 6 40 -16 28 -35 -3 -5 0 -24 7 -43 11
-29 10 -38 -4 -60 -9 -14 -17 -36 -17 -49 0 -23 -65 -88 -115 -115 -27 -14
-64 -127 -47 -144 9 -9 17 -6 35 10 31 29 61 28 86 -4 37 -47 28 -78 -44 -153
-54 -57 -65 -73 -65 -102 0 -54 -23 -79 -74 -79 -52 0 -82 -26 -72 -63 14 -56
-73 -100 -117 -59 -24 22 -52 17 -77 -13 -8 -9 -23 -21 -35 -25 -62 -23 -63
-23 -114 25 l-49 46 -84 -3 c-64 -3 -93 -9 -121 -25 -34 -21 -36 -24 -25 -48
6 -14 20 -25 30 -25 30 0 58 -19 58 -38 -1 -44 -43 -64 -175 -81 -84 -12 -115
-31 -115 -72 0 -25 -43 -52 -70 -44 -11 4 -28 18 -38 33 -24 37 -50 62 -64 62
-7 0 -22 -18 -32 -40 -18 -38 -22 -40 -64 -40 -29 0 -53 -7 -69 -20 -33 -26
-58 -25 -77 2 -23 33 -20 54 14 88 17 18 30 41 30 56 0 14 7 27 18 31 9 4 37
26 61 50 24 24 48 43 52 43 13 0 30 67 23 94 -5 21 -3 25 9 20 9 -3 20 2 26
15 15 27 14 31 -9 31 -23 0 -26 6 -34 73 -4 37 -3 47 9 47 8 0 15 7 15 15 0
17 -16 20 -25 5 -8 -13 -35 6 -35 24 0 6 -10 20 -22 30 -17 15 -25 16 -40 7
-10 -6 -27 -11 -38 -11 -11 0 -29 -6 -40 -12 -16 -11 -22 -9 -34 7 -13 18 -14
17 -30 -13 -9 -18 -20 -32 -24 -32 -9 0 -10 -111 -1 -125 4 -5 10 -24 13 -41
6 -26 3 -34 -19 -48 -19 -12 -25 -25 -25 -51 0 -28 -5 -38 -25 -47 -25 -11
-75 -88 -75 -114 0 -12 -11 -18 -31 -16 -139 17 -187 26 -217 42 -20 11 -53
20 -73 20 -43 0 -94 16 -131 42 -14 10 -41 21 -60 24 -48 10 -58 21 -58 70 0
43 19 74 45 74 15 0 95 -51 134 -84 17 -15 25 -17 28 -8 13 36 72 57 88 32 14
-22 26 -8 20 23 -5 26 -1 42 19 72 14 21 26 42 26 46 0 19 -32 7 -61 -22 -58
-60 -146 -47 -106 15 16 23 15 24 -16 29 -86 15 -103 21 -122 37 -37 32 -69
45 -140 55 -66 9 -70 12 -73 37 -5 41 -23 51 -61 32 -38 -19 -41 -50 -5 -66
24 -11 25 -13 8 -25 -21 -15 -64 -17 -64 -3 0 5 -7 7 -15 3 -24 -8 -12 -27 20
-33 24 -4 31 -12 36 -40 9 -40 -5 -61 -43 -65 -13 -1 -26 -3 -30 -4 -4 0 -8
-11 -10 -23 -4 -29 -32 -34 -64 -14 -23 16 -24 20 -18 85 4 42 2 75 -4 88 -16
28 -5 35 29 18 51 -27 57 -22 47 43 -5 31 -14 74 -20 95 -9 28 -8 41 0 49 17
17 15 28 -3 22 -8 -4 -15 -12 -15 -18 0 -17 -43 -39 -66 -34 -22 4 -41 39 -49
91 -4 23 -14 43 -29 52 -21 14 -28 13 -80 -11 -31 -14 -63 -23 -71 -20 -20 7
-51 59 -75 126 -12 30 -32 76 -46 102 -14 26 -31 69 -39 96 -11 35 -28 62 -60
91 -24 22 -49 41 -55 41 -6 0 -34 -12 -62 -26 -41 -21 -52 -23 -59 -12 -14 22
-10 48 9 55 9 4 22 13 28 21 8 11 15 12 31 4 11 -6 37 -10 59 -10 21 1 48 -2
60 -5 15 -5 28 1 50 22 24 24 42 31 91 37 83 9 129 -1 138 -29 7 -21 8 -20 12
6 4 26 7 28 36 23 51 -9 63 8 69 97 5 75 -4 105 -23 76 -7 -11 -9 -9 -9 7 0
12 -9 31 -20 44 -17 20 -21 30 -20 55 0 3 -7 19 -15 35 -12 22 -23 30 -44 30
-31 0 -64 30 -80 73 -9 24 -8 31 14 53 22 22 24 29 16 71 -8 42 -31 73 -52 73
-5 0 -11 -16 -15 -36 -3 -19 -16 -47 -28 -62 -22 -27 -40 -77 -51 -142 -7 -44
-45 -100 -67 -100 -10 0 -18 5 -18 11 0 5 -14 15 -31 21 -21 7 -35 22 -46 49
-8 22 -19 39 -24 39 -21 0 -49 80 -48 137 1 72 -22 195 -37 200 -7 2 -19 -3
-28 -12 -23 -23 -84 -10 -98 21 -13 27 3 54 32 54 25 0 49 41 52 88 2 32 9 44
36 61 l32 21 10 -25 c6 -15 10 -31 10 -36 0 -5 16 -19 35 -30 19 -12 35 -27
35 -35 0 -7 13 -28 28 -45 l28 -31 47 22 c30 14 49 30 53 45 6 26 32 34 137
41 43 3 67 1 67 -5 0 -18 50 -12 57 6 4 9 1 19 -5 21 -17 5 -15 22 3 22 8 0
15 4 15 8 0 4 14 13 31 19 41 16 38 55 -5 63 -31 5 -40 18 -28 37 6 10 17 9
49 0 54 -16 58 -21 39 -49 -9 -12 -16 -32 -16 -43 0 -12 -7 -30 -15 -41 -16
-22 -19 -62 -5 -84 5 -8 11 -12 12 -10 24 32 38 65 38 92 0 18 9 41 20 53 17
18 18 26 9 58 -7 27 -15 37 -30 37 -25 0 -79 27 -79 39 0 5 -3 16 -6 24 -8 21
22 29 67 17 32 -9 39 -15 39 -35 0 -15 7 -26 21 -30 27 -9 33 -1 20 23 -11 22
-5 52 10 52 5 0 15 -11 21 -25 9 -19 9 -28 0 -37 -13 -13 -16 -51 -5 -61 10
-10 63 44 63 64 0 45 26 67 32 27 2 -13 10 -24 18 -26 18 -3 50 50 50 84 0 18
9 27 35 38 40 17 47 31 10 22 -22 -6 -25 -3 -25 23 0 16 5 33 10 36 17 10 11
21 -16 33 -28 13 -24 32 7 32 10 0 19 6 19 13 0 15 49 41 59 32 3 -4 -5 -14
-18 -24 -13 -10 -21 -23 -17 -30 11 -17 47 -13 63 7 11 13 16 14 20 4 6 -16
33 3 33 25 0 11 -4 11 -20 3 -17 -9 -20 -8 -20 10 0 13 -7 20 -20 20 -11 0
-20 7 -20 15 0 9 -9 15 -25 15 -16 0 -25 6 -25 15 0 21 -31 19 -37 -3 -2 -10
-14 -22 -26 -27 -12 -6 -24 -21 -28 -35 -4 -14 -8 -20 -9 -15 -1 6 -3 15 -5
20 -1 6 -3 16 -3 23 -2 9 -12 11 -37 6 -27 -5 -35 -3 -35 8 0 21 -52 68 -86
77 -16 5 -28 14 -26 20 3 15 -22 64 -42 80 -9 8 -16 18 -16 24 0 5 9 2 20 -8
10 -9 26 -15 34 -12 15 6 15 19 0 95 -7 37 -32 25 -55 -28 -13 -31 -33 -57
-50 -67 -21 -12 -29 -25 -29 -44 0 -15 -3 -35 -6 -43 -6 -15 -7 -15 -19 0 -15
21 -25 15 -50 -32 -19 -36 -19 -37 -1 -48 48 -29 61 -44 49 -57 -7 -7 -13 -25
-13 -40 0 -16 -8 -34 -17 -41 -10 -7 -19 -26 -20 -43 -3 -40 -33 -93 -55 -98
-10 -3 -17 -11 -16 -17 2 -7 -4 -15 -12 -18 -8 -2 -12 -1 -8 3 4 4 -4 16 -17
27 -14 11 -22 25 -18 33 10 27 -6 62 -39 87 -60 45 -71 44 -114 -12 -38 -49
-59 -65 -47 -34 5 12 0 15 -23 12 -25 -3 -29 -7 -29 -33 0 -17 -10 -43 -21
-58 -23 -29 -36 -35 -33 -14 1 6 -1 20 -6 30 -5 12 0 35 13 65 12 26 25 65 28
86 9 54 45 89 81 80 16 -3 38 -13 51 -21 21 -13 26 -13 47 1 43 28 85 103 85
151 0 44 -1 44 -42 56 -24 6 -50 14 -58 18 -23 12 -24 50 -2 74 30 35 32 53
11 102 -22 49 -22 45 21 125 7 14 16 32 20 40 10 21 49 25 56 5 4 -9 1 -27 -6
-40 -19 -36 -7 -51 45 -58 36 -5 55 -2 85 13 22 11 49 20 60 20 23 0 92 -44
127 -81 53 -56 62 -62 76 -51 19 16 28 4 21 -24 -5 -18 -2 -24 9 -24 9 0 22
-12 29 -27 7 -14 19 -28 26 -31 21 -7 13 28 -13 52 -20 19 -26 35 -30 85 -5
79 6 111 40 111 38 0 32 36 -15 103 -33 46 -40 64 -41 104 -1 95 -11 127 -47
142 -27 12 -32 20 -32 48 0 24 7 37 25 49 23 15 27 15 60 -6 31 -19 40 -21 65
-10 35 14 43 36 34 85 -4 22 -2 41 6 50 16 20 84 19 100 0 17 -20 30 -19 94 9
l55 25 33 -23 c37 -24 67 -77 68 -118 0 -31 -37 -62 -88 -73 -36 -8 -92 -50
-92 -70 0 -15 22 -25 55 -25 13 0 27 -5 31 -11 4 -6 20 -8 39 -5 33 6 52 -4
72 -38 5 -7 27 -15 49 -18 42 -6 42 -6 48 31 3 21 17 48 32 62 14 13 32 36 40
51 8 15 28 35 44 43 17 9 30 24 30 34 0 10 9 26 20 36 11 10 20 24 20 32 0 7
-9 21 -20 30 -11 10 -20 30 -20 46 0 21 -12 41 -41 69 -39 38 -40 40 -23 59
13 15 25 18 51 13 24 -4 42 0 68 15 40 23 43 21 47 -43 3 -35 8 -43 43 -62 59
-34 84 -44 106 -44 10 0 19 -6 19 -13 0 -13 39 -56 85 -95 22 -18 26 -29 23
-54 -6 -37 14 -93 36 -101 8 -3 19 -29 25 -59 10 -47 10 -54 -6 -65 -9 -7 -36
-13 -59 -13 -44 0 -70 -19 -60 -45 3 -8 16 -15 29 -15 29 0 47 -18 47 -48 0
-13 13 -35 33 -53 27 -25 29 -31 17 -39 -8 -5 -10 -10 -5 -11 6 -1 17 -2 25
-3 8 -2 25 -3 37 -4 35 -3 54 -28 43 -58 -15 -37 -13 -43 15 -54 23 -9 25 -14
19 -47 -6 -31 -5 -35 10 -30 9 4 33 0 53 -8 43 -18 75 -19 91 -3 17 17 15 28
-7 28 -11 0 -22 4 -25 9 -6 9 9 62 30 105 15 31 5 56 -22 56 -16 0 -18 14 -4
40 10 19 63 50 85 50 19 0 26 28 13 50 -16 24 -3 38 21 23 23 -15 31 -8 31 28
0 50 -28 71 -98 72 -34 1 -62 2 -62 2 0 1 10 21 21 45 18 37 19 45 7 54 -8 6
-18 23 -22 39 -5 22 -1 32 20 50 53 46 26 139 -64 225 -19 18 -23 30 -18 53 7
35 -15 40 -37 9 -8 -11 -17 -17 -20 -14 -4 4 -20 1 -37 -6 -22 -9 -28 -16 -21
-23 26 -26 8 -25 -24 0 -38 30 -44 56 -20 90 12 17 28 23 73 26 31 2 62 4 68
5 6 1 31 -5 54 -13z m-432 -52 c3 -27 -1 -35 -22 -45 -22 -9 -29 -8 -46 7 -11
10 -20 24 -20 31 0 22 32 45 59 42 21 -2 27 -9 29 -35z m1856 -24 c-23 -26
-54 -25 -54 1 0 25 39 43 58 27 10 -8 9 -14 -4 -28z m66 -40 c0 -23 -16 -25
-24 -3 -10 25 -7 34 9 28 8 -4 15 -15 15 -25z m-1700 8 c0 -2 -10 -12 -22 -23
l-23 -19 19 23 c18 21 26 27 26 19z m-140 -16 c0 -5 -9 -19 -20 -32 -15 -19
-19 -21 -20 -7 0 9 7 24 16 32 18 18 24 20 24 7z m1320 -47 c0 -8 -4 -12 -10
-9 -5 3 -10 10 -10 16 0 5 5 9 10 9 6 0 10 -7 10 -16z m-1020 -38 c0 -6 -7 -2
-15 8 -8 11 -15 25 -15 30 0 6 7 2 15 -8 8 -11 15 -25 15 -30z m1146 -13 c8
-32 13 -38 38 -40 16 -1 33 -8 37 -15 12 -19 11 -48 -2 -48 -6 0 -8 -9 -4 -20
6 -20 -9 -50 -25 -50 -5 0 -11 22 -15 50 -6 42 -10 49 -28 47 -17 -2 -22 5
-29 43 -13 73 11 101 28 33z m431 15 c23 -22 30 -52 14 -62 -12 -8 -38 24 -46
57 -9 33 1 34 32 5z m-1664 -2 c-12 -21 -105 -118 -109 -114 -5 6 97 128 108
128 5 0 5 -6 1 -14z m167 -45 c0 -6 -4 -13 -10 -16 -5 -3 -10 1 -10 9 0 9 5
16 10 16 6 0 10 -4 10 -9z m1010 -12 c0 -5 9 -29 20 -52 11 -24 19 -54 17 -68
-5 -32 -23 -21 -19 12 2 15 -6 43 -18 63 -21 39 -27 71 -10 61 6 -3 10 -10 10
-16z m-1140 -36 c0 -5 -13 -17 -28 -27 l-27 -19 24 26 c26 28 31 32 31 20z
m68 -36 c2 -17 9 -45 17 -61 12 -22 12 -32 4 -40 -9 -8 -10 -8 -5 1 4 7 -4 29
-18 50 -14 21 -28 50 -31 65 -6 23 -4 26 12 22 13 -4 20 -16 21 -37z m-83 -53
c-8 -16 -15 -23 -15 -16 0 17 20 55 26 49 2 -2 -2 -17 -11 -33z m1115 22 c0
-26 -22 -76 -31 -70 -10 6 -12 45 -3 68 7 19 34 21 34 2z m-2754 -64 c-14 -14
-16 -14 -16 -1 0 20 23 44 29 28 2 -6 -4 -18 -13 -27z m1694 -40 c-23 -12 -37
-14 -42 -7 -9 12 17 24 52 24 23 0 22 -2 -10 -17z m1836 -25 c-6 -24 -33 -43
-44 -32 -3 3 2 22 12 42 12 25 20 33 28 25 6 -6 8 -22 4 -35z m-146 13 c8 -16
6 -24 -10 -40 -33 -33 -54 -4 -30 41 14 24 27 24 40 -1z m-723 -47 c-18 -9
-25 -9 -36 2 -13 13 -12 17 4 35 l19 21 17 -23 c17 -22 17 -23 -4 -35z m917
-74 c15 -36 10 -69 -9 -69 -14 0 -31 73 -20 90 10 16 15 12 29 -21z m-136 -66
c-4 -22 -22 -20 -26 1 -2 10 3 16 13 16 10 0 15 -7 13 -17z m269 -115 c16 -13
26 -63 18 -88 -3 -11 -14 -20 -24 -20 -21 0 -38 34 -47 91 -7 40 -6 41 17 34
13 -4 29 -12 36 -17z m-87 -198 c0 -14 -7 -20 -22 -20 -20 0 -21 1 -3 20 10
11 20 20 22 20 1 0 3 -9 3 -20z m278 -147 c-4 -23 -68 -32 -68 -9 0 16 15 24
48 25 17 1 23 -4 20 -16z m-3772 -69 c-3 -9 -6 -18 -6 -20 0 -3 -4 -3 -10 1
-11 7 -2 35 12 35 6 0 7 -7 4 -16z m3814 -39 c8 -9 9 -25 5 -42 -5 -16 -7 -41
-6 -56 2 -15 -4 -39 -13 -52 -9 -13 -16 -31 -16 -40 0 -8 -9 -24 -21 -36 -16
-16 -23 -18 -35 -8 -13 10 -12 14 2 30 11 13 15 28 11 49 -7 31 9 80 26 80 5
0 6 11 3 25 -6 23 10 65 25 65 4 0 12 -7 19 -15z m-3630 -15 c-6 -11 -13 -20
-16 -20 -2 0 0 9 6 20 6 11 13 20 16 20 2 0 0 -9 -6 -20z m-90 -34 c0 -3 -4
-8 -10 -11 -5 -3 -10 -1 -10 4 0 6 5 11 10 11 6 0 10 -2 10 -4z m274 -52 c3
-8 2 -12 -4 -9 -6 3 -10 10 -10 16 0 14 7 11 14 -7z m-49 -104 c3 -5 2 -10 -4
-10 -5 0 -13 5 -16 10 -3 6 -2 10 4 10 5 0 13 -4 16 -10z m-278 -32 c-3 -8 -6
-5 -6 6 -1 11 2 17 5 13 3 -3 4 -12 1 -19z m3870 -20 c36 -35 43 -75 21 -123
-12 -26 -51 -35 -64 -14 -9 14 -24 151 -18 161 10 15 28 8 61 -24z m-3884 -15
c-7 -2 -19 -2 -25 0 -7 3 -2 5 12 5 14 0 19 -2 13 -5z m167 -3 c0 -5 -9 -10
-19 -10 -11 0 -23 5 -26 10 -4 6 5 10 19 10 14 0 26 -4 26 -10z m3354 -48 c3
-5 1 -14 -4 -22 -7 -12 -13 -10 -34 10 -15 13 -26 32 -26 42 0 19 1 18 30 -2
16 -11 31 -24 34 -28z m-4046 -22 c-12 -17 -32 -37 -45 -45 -20 -14 -23 -14
-23 -1 0 9 6 20 13 26 69 57 88 64 55 20z m4142 -76 c0 -28 -4 -30 -60 -39
l-45 -7 -1 48 -1 47 28 -31 c41 -46 78 -43 44 2 -26 34 -18 53 10 26 14 -13
25 -34 25 -46z m60 -19 c0 -8 -4 -17 -10 -20 -6 -4 -10 5 -10 20 0 15 4 24 10
20 6 -3 10 -12 10 -20z m-4070 -5 c0 -5 -4 -10 -10 -10 -5 0 -10 5 -10 10 0 6
5 10 10 10 6 0 10 -4 10 -10z m4040 -75 c0 -19 -4 -35 -10 -35 -11 0 -13 30
-4 54 10 25 14 19 14 -19z m-130 -65 c0 -5 -9 -10 -20 -10 -11 0 -20 5 -20 10
0 6 9 10 20 10 11 0 20 -4 20 -10z m108 -25 c3 -15 -1 -17 -23 -11 -24 6 -25
5 -15 -15 9 -15 9 -24 1 -32 -15 -15 -19 -8 -21 33 -3 51 -3 51 28 47 16 -2
28 -11 30 -22z m211 -435 c18 -20 33 -29 44 -24 27 10 40 -39 22 -83 -8 -19
-15 -46 -15 -60 0 -15 -17 -41 -46 -71 l-45 -47 6 35 c4 19 17 45 31 57 26 24
32 63 10 63 -29 0 -77 35 -75 55 1 11 -1 32 -6 48 -8 30 7 57 32 57 8 0 27
-14 42 -30z m-4349 1 c0 -12 -42 -42 -49 -36 -5 6 29 45 41 45 4 0 8 -4 8 -9z
m-63 -169 c9 -6 7 -11 -7 -20 -17 -11 -20 -10 -20 8 0 21 7 25 27 12z m103
-132 c0 -5 -5 -10 -11 -10 -5 0 -7 5 -4 10 3 6 8 10 11 10 2 0 4 -4 4 -10z
m-60 -20 c0 -5 -5 -10 -11 -10 -5 0 -7 5 -4 10 3 6 8 10 11 10 2 0 4 -4 4 -10z
m268 -15 c-1 -14 -6 -25 -11 -25 -5 0 -6 7 -3 16 3 9 6 20 6 25 0 5 2 9 5 9 3
0 4 -11 3 -25z m4027 -68 c16 -39 9 -84 -16 -98 -26 -13 -35 -6 -43 33 -5 24
-1 40 16 65 13 18 24 33 26 33 2 0 9 -15 17 -33z m-448 -119 c26 -25 30 -69 8
-92 -22 -22 -56 -30 -65 -16 -13 22 -20 -6 -10 -41 24 -83 5 -112 -66 -102
-38 5 -41 3 -67 -36 -36 -54 -65 -68 -114 -53 -21 6 -50 14 -65 17 -43 9 -33
25 16 25 32 0 50 6 70 25 14 13 26 30 26 37 0 7 11 0 23 -16 14 -17 29 -26 35
-22 16 10 15 26 -1 26 -7 0 -28 13 -47 28 -19 16 -45 34 -58 41 -12 7 -20 16
-17 22 10 15 22 11 49 -16 19 -19 32 -24 50 -19 17 4 25 1 28 -9 5 -25 48 -2
48 27 0 18 11 31 45 50 37 22 45 32 45 55 0 16 7 34 16 42 8 7 13 21 11 31 -7
24 12 23 40 -4z m-127 -31 c0 -53 -22 -89 -42 -69 -11 11 -10 14 1 21 8 5 11
16 6 30 -3 11 -2 21 3 21 5 0 12 9 15 20 9 34 17 22 17 -23z m-93 -4 c4 -10
11 -21 17 -25 20 -13 -3 -20 -31 -10 -15 6 -22 11 -15 11 9 1 11 8 7 21 -8 25
13 27 22 3z m543 -21 c0 -19 -18 -42 -32 -42 -12 0 -9 35 4 48 17 17 28 15 28
-6z m-502 -510 c-2 -14 -11 -30 -21 -36 -15 -9 -21 -7 -33 9 -13 18 -13 20 0
23 11 2 16 15 16 41 0 21 3 41 7 45 11 11 35 -52 31 -82z m202 54 c0 -16 -24
-38 -33 -30 -8 9 11 44 23 44 6 0 10 -6 10 -14z m-130 -83 c0 -20 -3 -24 -11
-16 -7 7 -9 19 -6 27 10 24 17 19 17 -11z m-3106 -59 c13 -5 14 -9 5 -20 -6
-8 -17 -14 -24 -14 -7 0 -15 -7 -19 -15 -6 -17 -32 -20 -40 -6 -9 15 3 36 27
47 28 15 32 15 51 8z m3316 -15 c0 -5 -7 -9 -15 -9 -15 0 -20 12 -9 23 8 8 24
-1 24 -14z m-210 7 c0 -3 -4 -8 -10 -11 -5 -3 -10 -1 -10 4 0 6 5 11 10 11 6
0 10 -2 10 -4z m120 -123 c0 -35 -27 -28 -34 8 -3 17 -6 39 -6 48 1 26 40 -30
40 -56z m-119 25 c6 -10 9 -31 7 -46 -2 -23 -9 -28 -37 -30 -22 -2 -31 0 -26
7 3 6 -8 23 -26 38 -31 27 -31 27 -11 43 26 21 79 15 93 -12z m-1748 -73 c18
-38 23 -59 8 -36 -7 11 -13 6 -27 -20 -9 -19 -19 -29 -21 -22 -2 6 3 23 12 36
12 19 13 31 6 51 -15 39 3 32 22 -9z m1615 23 c-5 -15 -58 -24 -58 -10 0 15
12 22 38 22 14 0 22 -5 20 -12z m-2586 -129 c-5 -31 -10 -35 -23 -22 -14 14
-2 56 14 50 7 -2 10 -15 9 -28z m-141 -22 c-10 -9 -11 -8 -5 6 3 10 9 15 12
12 3 -3 0 -11 -7 -18z m1077 -3 c-19 -19 -32 -25 -45 -19 -15 6 -11 10 22 25
53 24 54 24 23 -6z m-992 -34 c24 0 15 -18 -18 -34 -37 -19 -58 -20 -58 -4 0
19 33 49 48 43 7 -3 20 -5 28 -5z m-48 -99 c22 -14 -8 -30 -53 -27 -49 2 -61
18 -20 27 44 10 58 10 73 0z m839 -77 c-3 -3 -12 -4 -19 -1 -8 3 -5 6 6 6 11
1 17 -2 13 -5z m1163 -55 c0 -32 -40 -72 -64 -63 -11 4 -21 1 -27 -7 -6 -10
-11 -11 -20 -2 -8 8 -6 13 10 18 12 3 30 26 41 50 29 63 59 66 60 4z m-1932 9
c-3 -7 -11 -13 -18 -13 -7 0 -15 6 -17 13 -3 7 4 12 17 12 13 0 20 -5 18 -12z
m1885 -104 c8 -8 -3 -34 -14 -34 -5 0 -9 9 -9 20 0 19 11 26 23 14z m65 -47
c6 -5 12 -23 12 -39 0 -18 6 -31 18 -35 14 -6 13 -8 -8 -14 -14 -4 -40 -7 -57
-8 -26 -1 -34 4 -38 22 -14 63 29 107 73 74z m-1197 -204 c-5 -10 -10 -22 -11
-28 -4 -24 -10 -16 -10 13 0 22 5 32 15 32 12 0 13 -4 6 -17z m247 -20 c-2
-10 -10 -18 -18 -18 -8 0 -16 8 -18 18 -2 12 3 17 18 17 15 0 20 -5 18 -17z
m-320 -39 c-9 -10 -24 -14 -33 -10 -23 9 -9 26 23 26 24 0 25 -1 10 -16z"/>
<path d="M2749 4492 l-27 -3 27 -47 c42 -77 57 -93 75 -86 22 9 20 39 -4 55
-12 8 -26 30 -33 49 -10 30 -16 35 -38 32z"/>
<path d="M2817 4473 c-13 -12 -7 -22 22 -36 38 -19 47 -10 19 20 -23 24 -30
27 -41 16z"/>
<path d="M3275 4204 c-23 -30 -25 -38 -14 -50 8 -7 30 -15 49 -16 32 -3 35 0
38 26 9 79 -28 100 -73 40z"/>
<path d="M3040 4216 c0 -23 22 -35 54 -29 37 7 55 21 35 27 -40 13 -89 14 -89
2z"/>
<path d="M2003 4030 c-24 -30 -29 -50 -13 -50 5 0 7 -7 4 -15 -5 -12 -10 -13
-20 -4 -8 6 -14 17 -14 24 0 6 -9 20 -20 30 -19 18 -22 18 -37 2 -16 -16 -16
-18 0 -34 11 -11 17 -13 17 -5 0 7 4 12 9 12 4 0 4 -20 -2 -45 -9 -38 -13 -43
-28 -35 -10 6 -31 8 -48 7 -33 -4 -55 -17 -28 -17 14 0 12 -6 -8 -36 -14 -20
-25 -42 -25 -49 0 -7 -7 -18 -15 -25 -18 -15 -19 -7 -4 22 14 25 -2 44 -28 33
-10 -5 -24 -7 -32 -6 -7 1 -10 -2 -6 -8 3 -6 -1 -14 -10 -17 -18 -7 -45 -55
-45 -79 0 -18 55 -45 110 -54 28 -5 39 -14 56 -46 14 -27 17 -42 10 -47 -6 -5
-1 -8 12 -8 12 0 22 6 22 14 0 8 9 13 24 12 18 -1 22 -4 14 -13 -5 -7 -7 -17
-3 -23 4 -6 -1 -38 -11 -72 -16 -53 -23 -63 -53 -75 -21 -9 -30 -18 -24 -24 5
-5 8 -23 5 -39 -3 -22 -10 -30 -26 -30 -26 -1 -55 -22 -70 -52 -6 -12 -26 -33
-45 -45 l-34 -23 30 -6 c26 -5 29 -10 25 -31 -3 -14 -13 -34 -23 -44 -24 -24
-24 -42 0 -34 12 3 21 0 25 -10 4 -11 13 -14 25 -10 23 7 35 -8 26 -35 -4 -13
-15 -20 -31 -20 -15 0 -24 -6 -24 -16 0 -40 108 22 110 63 0 15 -30 32 -47 26
-14 -5 -36 34 -29 52 5 14 38 1 101 -38 11 -6 22 -13 24 -15 3 -1 -4 -8 -14
-16 -17 -12 -18 -17 -7 -40 17 -37 15 -56 -5 -57 -13 0 -11 -3 7 -10 16 -7 26
-7 28 0 2 6 15 6 33 1 17 -5 44 -7 60 -3 17 3 35 0 44 -7 22 -18 19 -33 -4
-20 -28 15 -31 13 -31 -18 0 -22 -7 -30 -30 -39 -23 -9 -30 -17 -30 -38 0 -25
3 -27 27 -20 32 8 45 23 37 47 -8 25 57 54 86 38 12 -7 29 -10 39 -8 9 2 24
-4 34 -14 15 -15 15 -18 1 -18 -8 0 -12 -5 -9 -10 3 -6 -1 -13 -9 -16 -9 -3
-16 -13 -16 -21 0 -11 7 -13 24 -9 14 3 28 2 31 -4 3 -5 16 -10 28 -11 12 -1
-4 -8 -35 -16 -57 -15 -78 -33 -38 -33 11 0 20 -6 20 -14 0 -22 -24 -36 -51
-30 -14 3 -19 2 -12 -3 27 -20 16 -73 -19 -88 -13 -6 -27 -20 -33 -32 -7 -16
-15 -21 -27 -17 -12 3 -18 0 -18 -10 0 -11 -10 -16 -32 -16 l-33 0 27 -14 c18
-10 38 -12 62 -6 30 7 36 5 41 -11 9 -28 -2 -39 -35 -32 -19 3 -38 0 -53 -10
-22 -14 -26 -14 -40 0 -21 22 -47 2 -39 -30 5 -20 4 -21 -14 -8 -10 8 -30 26
-43 39 -16 17 -31 22 -48 19 -27 -5 -63 22 -63 48 0 8 -11 17 -24 21 -17 4
-26 14 -28 32 l-4 27 -14 -30 c-8 -16 -27 -41 -43 -55 l-28 -25 20 -47 20 -48
-24 0 c-15 0 -29 -9 -36 -22 -10 -18 -8 -24 7 -35 10 -7 26 -11 36 -7 12 3 18
0 18 -10 0 -9 -4 -16 -10 -16 -5 0 -10 -7 -10 -16 0 -9 -9 -32 -21 -50 l-20
-33 31 -20 c31 -19 32 -19 11 -30 -15 -9 -21 -21 -21 -48 0 -30 2 -34 15 -23
9 7 15 8 15 2 0 -16 -53 -46 -77 -43 -32 4 -35 -13 -8 -39 14 -13 25 -32 25
-43 0 -29 23 -15 32 20 9 36 45 50 68 27 13 -13 13 -16 0 -24 -13 -8 -12 -11
6 -16 12 -3 28 -21 37 -40 10 -20 24 -34 34 -34 17 0 20 16 14 78 0 6 -14 12
-31 12 -37 0 -38 12 -5 34 29 19 32 33 8 39 -11 3 -7 5 10 6 32 1 31 0 12 37
-16 32 -19 54 -7 54 4 0 14 -20 21 -45 15 -49 18 -52 47 -30 10 8 26 15 35 15
16 0 23 30 7 30 -4 0 -8 4 -8 9 0 6 12 6 30 -1 24 -8 35 -7 53 5 32 20 64 15
93 -16 15 -17 35 -27 53 -27 34 0 87 -50 70 -67 -7 -7 -7 -17 -1 -29 5 -11 18
-36 28 -57 l19 -37 7 27 c16 55 16 147 0 165 -8 9 -12 23 -9 30 3 8 6 6 6 -6
1 -14 7 -17 28 -13 18 3 31 0 40 -11 8 -12 15 -13 20 -6 5 6 16 13 26 17 9 3
17 16 17 27 0 11 4 20 8 20 5 0 7 13 4 28 -2 19 2 33 14 43 16 12 17 12 10 -1
-9 -16 59 52 84 85 13 17 12 17 -17 -3 -28 -20 -73 -30 -73 -17 0 8 39 45 48
45 5 0 14 11 20 25 14 31 30 32 37 3 7 -26 50 -35 59 -12 3 8 -1 14 -9 14 -21
0 -18 12 10 39 14 13 25 27 25 32 0 11 -36 -6 -62 -28 -18 -16 -43 -9 -32 9 5
7 2 8 -7 2 -28 -18 -85 -34 -121 -34 -27 0 -40 -6 -48 -20 -17 -32 -33 -24
-25 13 10 44 15 50 31 36 11 -9 18 -9 26 -1 8 8 15 8 24 1 9 -7 16 -5 24 10 8
16 17 20 35 15 20 -5 25 -1 31 20 7 29 19 34 28 11 8 -23 25 -18 36 10 11 29
10 28 44 15 21 -8 27 -6 36 11 6 11 9 30 7 42 l-4 22 -8 -22 c-7 -22 -16 -27
-43 -24 -7 1 -19 -5 -28 -14 -18 -17 -44 -20 -44 -4 0 6 -9 24 -21 40 -22 32
-18 49 12 49 10 0 19 5 19 10 0 14 -16 13 -83 -5 -72 -19 -67 -19 -67 5 0 22
44 55 60 45 6 -4 22 -4 36 -1 20 5 24 12 24 46 0 21 4 42 10 45 5 3 15 16 21
27 10 18 9 20 -7 14 -20 -8 -34 8 -34 40 0 17 5 20 25 16 29 -5 32 5 8 24 -17
12 -16 13 7 14 22 1 22 2 6 9 -17 7 -16 11 17 44 42 41 45 52 18 66 -24 14
-31 5 -24 -30 5 -28 4 -29 -26 -27 -24 2 -33 8 -38 26 -6 26 2 38 32 44 13 2
21 12 23 29 3 26 -4 31 -58 44 -24 5 -48 28 -44 40 4 9 -4 19 -20 26 -14 7
-26 17 -26 23 0 6 5 5 12 -2 24 -24 31 -12 8 13 -22 24 -23 26 -6 44 14 15 15
24 6 40 -7 14 -7 21 0 21 5 0 10 13 10 30 0 31 1 30 -77 46 -18 3 -24 -1 -29
-23 -8 -35 -22 -53 -40 -53 -20 0 -17 17 6 37 21 19 27 53 9 53 -6 0 -13 -9
-16 -20 -6 -23 -68 -39 -86 -21 -6 6 -9 12 -6 13 2 2 22 12 43 23 53 27 64 46
48 87 -10 27 -9 35 5 50 15 17 15 20 -2 52 -16 30 -17 37 -5 51 12 15 8 22
-33 61 -26 24 -47 49 -47 56 0 7 16 -5 35 -27 34 -36 36 -37 49 -19 15 20 12
34 -8 34 -16 0 -14 39 3 50 10 6 10 13 -4 34 -17 26 -41 26 -31 -1 3 -8 1 -11
-4 -8 -14 8 -13 31 3 56 10 17 9 22 -7 34 -18 13 -18 15 4 42 12 16 17 29 11
31 -14 5 -14 42 -1 42 24 0 7 27 -23 38 -49 18 -70 14 -94 -18z m73 -37 c-4
-4 -11 -1 -16 7 -16 25 -11 35 7 17 9 -9 13 -20 9 -24z m4 -80 c0 -8 -38 17
-51 33 -9 11 -2 9 19 -6 17 -13 32 -25 32 -27z m-50 -85 c0 -6 -6 -5 -15 2 -8
7 -15 14 -15 16 0 2 7 1 15 -2 8 -4 15 -11 15 -16z m-153 -70 c-3 -8 -6 -5 -6
6 -1 11 2 17 5 13 3 -3 4 -12 1 -19z m233 -173 c-14 -17 -50 -21 -50 -5 0 6 9
10 19 10 11 0 23 5 26 11 4 6 9 8 12 5 3 -3 0 -12 -7 -21z m-10 -125 c0 -5 -7
-10 -16 -10 -8 0 -12 5 -9 10 3 6 10 10 16 10 5 0 9 -4 9 -10z m-117 -135 c-3
-9 -8 -14 -10 -11 -3 3 -2 9 2 15 9 16 15 13 8 -4z m90 -25 c7 0 3 -7 -7 -15
-16 -12 -17 -17 -6 -30 15 -18 9 -25 -35 -44 -29 -12 -29 -12 -12 6 10 11 17
36 17 57 0 31 3 37 16 32 9 -3 21 -6 27 -6z m48 -3 c-1 -12 -15 -9 -19 4 -3 6
1 10 8 8 6 -3 11 -8 11 -12z m137 -15 c6 -18 -15 -14 -22 4 -4 10 -1 14 6 12
6 -2 14 -10 16 -16z m-301 -14 c-3 -8 -6 -5 -6 6 -1 11 2 17 5 13 3 -3 4 -12
1 -19z m303 -78 c0 -18 -31 -10 -56 15 -29 29 -34 31 -34 9 0 -26 -25 -9 -28
20 l-3 27 60 -31 c34 -16 61 -35 61 -40z m-140 53 c0 -5 -5 -15 -10 -23 -8
-12 -10 -11 -10 8 0 12 5 22 10 22 6 0 10 -3 10 -7z m-173 -34 c10 -26 15 -30
27 -20 11 9 15 8 20 -5 4 -9 4 -25 1 -35 -5 -14 -2 -17 9 -13 22 8 20 -8 -5
-40 -11 -14 -25 -42 -30 -61 -9 -31 -13 -35 -42 -34 -29 2 -29 2 -6 6 22 3 29
12 39 49 12 41 11 47 -7 67 -26 29 -47 83 -39 102 9 24 21 18 33 -16z m-94
-69 c-7 -8 -22 24 -16 34 4 5 10 1 13 -10 4 -10 6 -21 3 -24z m284 14 c-3 -3
-12 -4 -19 -1 -8 3 -5 6 6 6 11 1 17 -2 13 -5z m-221 -52 c-4 -11 -13 -23 -21
-26 -17 -6 -21 9 -5 19 6 3 10 11 10 16 0 6 -4 7 -10 4 -5 -3 -10 -2 -10 4 0
13 23 20 33 11 5 -5 6 -17 3 -28z m152 13 c-3 -3 -9 2 -12 12 -6 14 -5 15 5 6
7 -7 10 -15 7 -18z m64 -47 c-7 -7 -12 -8 -12 -2 0 14 12 26 19 19 2 -3 -1
-11 -7 -17z m83 -8 c12 -19 -12 -10 -31 11 -19 22 -19 22 3 10 12 -6 25 -16
28 -21z m95 -23 c0 -5 -4 -5 -10 -2 -5 3 -10 14 -10 23 0 15 2 15 10 2 5 -8
10 -19 10 -23z m-110 -27 c0 -5 -4 -10 -10 -10 -5 0 -10 5 -10 10 0 6 5 10 10
10 6 0 10 -4 10 -10z m87 4 c-3 -3 -12 -4 -19 -1 -8 3 -5 6 6 6 11 1 17 -2 13
-5z m-137 -38 c0 -2 -7 -7 -16 -10 -8 -3 -12 -2 -9 4 6 10 25 14 25 6z m194
-49 c3 3 6 -1 6 -11 0 -13 -4 -15 -19 -6 -11 5 -23 15 -27 21 -5 8 -1 8 13 0
11 -6 23 -7 27 -4z m-160 -72 c-4 -8 -10 -15 -15 -15 -4 0 -6 7 -3 15 4 8 10
15 15 15 4 0 6 -7 3 -15z m185 -101 c-14 -17 -42 -6 -35 13 3 8 6 22 6 30 0
12 5 10 20 -7 15 -17 17 -26 9 -36z m-64 16 c3 -5 1 -19 -4 -32 -6 -12 -10
-18 -10 -11 -1 7 -19 17 -41 23 -22 6 -40 15 -40 20 0 18 84 18 95 0z m-54
-60 c5 0 9 -4 9 -10 0 -5 -8 -10 -18 -10 -10 0 -23 -5 -30 -12 -17 -17 -25 -3
-12 22 7 13 17 19 27 16 8 -3 19 -6 24 -6z m-101 -75 c0 -8 -4 -15 -10 -15 -5
0 -10 7 -10 15 0 8 5 15 10 15 6 0 10 -7 10 -15z m85 -6 c0 -8 -10 -15 -23
-17 -21 -3 -22 -1 -12 18 12 23 35 22 35 -1z m-157 -55 c3 -22 -26 -42 -37
-26 -3 5 -12 11 -20 13 -11 4 -10 8 4 22 22 23 49 18 53 -9z m158 -19 c-7 -18
-26 -20 -26 -2 0 18 24 41 28 27 2 -6 1 -17 -2 -25z m109 -1 c16 -24 16 -26
-4 -31 -12 -3 -21 -12 -21 -20 0 -12 -3 -13 -14 -4 -10 9 -21 7 -44 -6 -17
-10 -33 -15 -37 -12 -12 12 8 38 40 53 18 9 35 23 39 31 8 22 21 18 41 -11z
m-190 -115 c-10 -15 -25 -10 -19 6 4 8 10 12 15 9 5 -3 7 -10 4 -15z m-505
-29 c-8 -5 -19 -10 -25 -10 -5 0 -3 5 5 10 8 5 20 10 25 10 6 0 3 -5 -5 -10z
m325 -3 c11 1 14 -1 7 -4 -7 -3 -17 -16 -22 -29 -11 -29 -30 -32 -30 -5 0 10
-7 21 -15 25 -27 10 -17 27 13 19 15 -3 36 -6 47 -6z m-372 -27 c-3 -11 -9
-20 -14 -20 -14 0 -11 28 4 33 6 3 13 6 14 6 0 1 -1 -8 -4 -19z m267 -17 c0
-13 -3 -13 -15 -3 -8 7 -15 16 -15 21 0 5 7 6 15 3 8 -4 15 -13 15 -21z m-70
-17 c0 -2 -8 -10 -17 -17 -16 -13 -17 -12 -4 4 13 16 21 21 21 13z m219 -75
l0 -46 -15 45 c-19 61 -19 76 1 60 10 -8 15 -29 14 -59z m-284 29 c-3 -5 -12
-10 -18 -10 -7 0 -6 4 3 10 19 12 23 12 15 0z m425 -59 c0 -16 7 -34 15 -41
23 -19 18 -27 -21 -34 -48 -10 -65 5 -53 46 10 36 38 70 50 62 5 -3 9 -18 9
-33z m-240 9 c21 -13 7 -22 -25 -14 -20 5 -23 9 -13 15 16 11 20 11 38 -1z
m-338 -22 c-7 -7 -12 -8 -12 -2 0 6 3 14 7 17 3 4 9 5 12 2 2 -3 -1 -11 -7
-17z m108 -9 c0 -6 -4 -7 -10 -4 -5 3 -10 11 -10 16 0 6 5 7 10 4 6 -3 10 -11
10 -16z m75 11 c3 -5 -1 -10 -9 -10 -9 0 -16 5 -16 10 0 6 4 10 9 10 6 0 13
-4 16 -10z m-145 -15 c0 -8 -2 -15 -4 -15 -2 0 -6 7 -10 15 -3 8 -1 15 4 15 6
0 10 -7 10 -15z m357 7 c19 -12 -8 -37 -44 -38 -29 -1 -53 20 -38 34 3 3 5 0
5 -6 0 -7 13 -12 30 -12 22 0 28 4 24 15 -7 16 4 19 23 7z m288 -51 c3 -5 1
-12 -4 -15 -13 -8 -42 4 -35 15 7 12 31 12 39 0z m-610 -21 c3 -5 2 -10 -4
-10 -5 0 -13 5 -16 10 -3 6 -2 10 4 10 5 0 13 -4 16 -10z"/>
<path d="M2243 3962 c-18 -11 1 -36 22 -28 9 3 15 11 13 18 -5 15 -20 20 -35
10z"/>
<path d="M3600 3880 c5 -17 7 -37 5 -43 -2 -7 -6 -34 -9 -60 l-6 -48 42 3 c38
3 44 0 56 -24 17 -37 54 -37 82 -1 25 32 22 48 -11 49 -13 0 -39 7 -56 14 -32
14 -37 24 -36 83 0 9 -6 17 -12 17 -7 0 -24 9 -38 20 l-26 20 9 -30z"/>
<path d="M3660 3896 c0 -10 9 -16 21 -16 24 0 21 23 -4 28 -10 2 -17 -3 -17
-12z"/>
<path d="M3526 3891 c-8 -12 16 -91 26 -91 14 0 8 77 -6 89 -9 8 -16 8 -20 2z"/>
<path d="M2160 3880 c0 -5 5 -10 10 -10 6 0 10 5 10 10 0 6 -4 10 -10 10 -5 0
-10 -4 -10 -10z"/>
<path d="M3004 3860 c-24 -9 -51 -70 -31 -70 8 0 8 -3 -1 -12 -7 -7 -12 -18
-12 -25 0 -7 -9 -22 -20 -33 -11 -11 -20 -29 -20 -39 0 -11 -14 -29 -30 -41
-21 -15 -29 -28 -25 -39 3 -11 -9 -32 -36 -60 -40 -42 -41 -42 -56 -22 -10 15
-25 21 -54 21 -21 0 -39 -4 -39 -10 0 -5 8 -10 18 -10 11 0 27 -9 37 -20 10
-11 22 -17 27 -14 5 3 18 -2 30 -12 17 -17 19 -26 13 -81 -5 -52 -4 -64 9 -69
9 -3 16 -11 16 -16 0 -6 -7 -7 -16 -4 -15 6 -64 -20 -64 -34 0 -16 45 -19 60
-5 21 19 26 19 61 -6 36 -26 49 -18 49 31 0 33 3 37 20 33 20 -5 29 12 9 19
-17 6 0 36 24 42 34 9 45 -12 13 -24 -23 -9 -26 -13 -16 -25 9 -11 9 -19 1
-28 -10 -13 -12 -25 -13 -114 0 -45 -5 -48 -55 -44 -12 1 -24 -3 -28 -9 -3 -5
-1 -10 4 -10 6 0 11 -7 11 -15 0 -20 17 -19 29 3 8 13 12 14 19 4 11 -16 55
-7 73 14 6 8 9 23 6 34 -6 24 12 38 24 19 7 -11 12 -10 30 7 26 27 17 46 -18
38 -24 -6 -25 -5 -19 21 7 26 5 27 -19 23 -22 -5 -26 -2 -23 16 2 13 11 22 25
24 26 4 58 48 42 57 -14 9 19 45 41 45 21 0 34 14 65 72 13 24 31 58 41 76 13
23 15 35 7 40 -6 4 -14 26 -18 50 -4 24 -13 46 -21 49 -23 9 -31 -7 -11 -22
11 -8 14 -16 8 -19 -6 -4 -18 5 -27 19 -9 14 -22 25 -29 25 -6 0 -17 11 -23
25 -11 24 -10 25 7 15 14 -7 21 -6 24 3 2 6 -5 16 -16 22 -25 13 -51 81 -34
89 7 2 -1 4 -18 5 -16 0 -40 -4 -51 -9z m11 -59 c-3 -6 3 -14 12 -20 10 -6 13
-11 8 -11 -13 0 -35 20 -35 32 0 4 5 8 11 8 5 0 8 -4 4 -9z m47 -233 c-16 -31
-22 -37 -22 -22 0 12 7 27 15 34 10 8 13 21 9 34 -5 17 -4 19 7 9 11 -11 9
-21 -9 -55z m-12 -74 c0 -8 -4 -12 -10 -9 -5 3 -10 13 -10 21 0 8 5 12 10 9 6
-3 10 -13 10 -21z m-100 -35 c0 -5 -4 -9 -10 -9 -5 0 -10 -8 -10 -19 0 -20
-29 -32 -60 -24 -19 5 -18 7 6 33 25 26 74 38 74 19z m80 1 c-20 -13 -43 -13
-35 0 3 6 16 10 28 10 18 0 19 -2 7 -10z"/>
<path d="M2325 3770 c-3 -5 -19 -10 -35 -10 -16 0 -32 -5 -35 -11 -4 -6 -13
-8 -21 -5 -20 8 -29 -21 -14 -39 16 -19 40 -19 40 0 0 18 37 38 57 31 9 -4 27
1 41 10 19 13 22 18 11 25 -19 12 -36 11 -44 -1z"/>
<path d="M1405 3729 c-4 -6 -5 -13 -2 -16 7 -7 27 6 27 18 0 12 -17 12 -25 -2z"/>
<path d="M2507 3723 c-12 -12 -7 -22 8 -17 8 4 15 10 15 15 0 11 -14 12 -23 2z"/>
<path d="M3475 3720 c-3 -5 -2 -10 4 -10 5 0 13 5 16 10 3 6 2 10 -4 10 -5 0
-13 -4 -16 -10z"/>
<path d="M2378 3713 c-16 -4 -16 -6 -3 -20 12 -12 19 -12 30 -3 8 7 12 16 9
21 -5 9 -8 10 -36 2z"/>
<path d="M2295 3690 c3 -5 8 -10 11 -10 2 0 4 5 4 10 0 6 -5 10 -11 10 -5 0
-7 -4 -4 -10z"/>
<path d="M2180 3664 c0 -7 6 -22 13 -35 11 -22 15 -23 47 -13 l34 11 -34 8
c-19 4 -40 15 -47 24 -7 9 -13 11 -13 5z"/>
<path d="M3572 3663 c2 -5 12 -25 21 -45 10 -21 22 -38 27 -38 14 0 13 4 -11
50 -12 22 -25 40 -31 40 -5 0 -8 -3 -6 -7z"/>
<path d="M1572 3632 c3 -23 -1 -27 -24 -30 -16 -2 -28 -6 -28 -10 0 -4 -3 -18
-7 -32 -5 -21 -4 -23 8 -13 9 8 29 10 51 7 30 -5 37 -3 42 14 4 11 13 23 21
26 8 3 15 18 15 34 0 26 -3 28 -40 29 -38 2 -40 1 -38 -25z"/>
<path d="M2530 3648 c0 -16 19 -38 33 -38 4 0 7 10 5 22 -3 25 -38 39 -38 16z"/>
<path d="M3237 3639 c-14 -8 -16 -14 -7 -24 9 -11 5 -27 -21 -72 -18 -32 -41
-70 -51 -85 -26 -38 -23 -49 12 -41 17 3 30 2 30 -3 0 -5 27 -10 60 -11 l60
-1 0 38 c0 21 -6 40 -12 43 -7 2 -23 24 -36 47 -20 38 -21 45 -8 59 9 10 13
26 9 39 -6 25 -10 26 -36 11z"/>
<path d="M3300 3640 c0 -5 5 -10 10 -10 6 0 10 5 10 10 0 6 -4 10 -10 10 -5 0
-10 -4 -10 -10z"/>
<path d="M2835 3630 c4 -6 11 -8 16 -5 14 9 11 15 -7 15 -8 0 -12 -5 -9 -10z"/>
<path d="M1133 3623 c-13 -5 -18 -45 -7 -56 14 -13 42 13 37 33 -6 24 -13 29
-30 23z"/>
<path d="M2453 3604 c-7 -14 -9 -39 -6 -56 5 -27 4 -29 -20 -23 -22 6 -25 4
-20 -14 6 -22 18 -27 28 -11 3 5 20 7 38 4 30 -5 31 -5 12 10 -16 14 -18 21
-9 54 16 60 0 85 -23 36z"/>
<path d="M2320 3610 c0 -5 5 -10 11 -10 5 0 7 5 4 10 -3 6 -8 10 -11 10 -2 0
-4 -4 -4 -10z"/>
<path d="M3855 3599 c-4 -11 -4 -23 -1 -26 8 -9 36 17 36 33 0 22 -28 16 -35
-7z"/>
<path d="M3710 3591 c-13 -26 -13 -41 3 -41 25 0 39 17 32 39 -8 26 -21 27
-35 2z"/>
<path d="M1653 3539 c9 -5 17 -17 17 -24 0 -16 41 -21 54 -7 4 4 20 7 34 7 17
0 27 5 27 15 0 12 -16 16 -75 17 -56 2 -71 0 -57 -8z"/>
<path d="M3515 3540 c-8 -13 29 -30 66 -30 29 0 31 2 19 14 -19 17 -77 28 -85
16z"/>
<path d="M1804 3495 c-9 -23 14 -45 26 -25 5 8 8 19 7 24 -6 17 -27 18 -33 1z"/>
<path d="M3383 3485 c-3 -9 -3 -18 0 -22 10 -10 37 6 37 22 0 20 -29 20 -37 0z"/>
<path d="M3488 3473 c4 -19 0 -23 -22 -23 -25 0 -59 -25 -68 -50 -3 -10 -9
-10 -27 -1 -17 10 -26 10 -37 0 -21 -17 -18 -43 4 -33 9 4 44 10 77 13 48 5
62 10 69 27 5 11 18 25 30 30 30 14 30 31 -2 46 -28 14 -28 14 -24 -9z"/>
<path d="M2350 3465 c12 -15 30 -12 30 6 0 5 -10 9 -21 9 -18 0 -19 -2 -9 -15z"/>
<path d="M995 3460 c-4 -6 -3 -16 3 -22 6 -6 12 -6 17 2 4 6 3 16 -3 22 -6 6
-12 6 -17 -2z"/>
<path d="M1575 3459 c-4 -6 -4 -13 -1 -16 8 -8 36 5 36 17 0 13 -27 13 -35 -1z"/>
<path d="M1683 3450 c-3 -11 -12 -20 -19 -20 -8 0 -17 -7 -20 -15 -4 -8 -12
-15 -20 -15 -16 0 -19 -26 -3 -35 6 -4 16 0 22 7 7 8 27 25 45 37 17 12 32 31
32 42 0 25 -30 25 -37 -1z"/>
<path d="M2250 3460 c0 -5 5 -10 10 -10 6 0 10 5 10 10 0 6 -4 10 -10 10 -5 0
-10 -4 -10 -10z"/>
<path d="M2637 3443 c-4 -3 -7 -15 -7 -25 0 -22 -7 -23 -26 -3 -9 8 -22 15
-29 15 -9 0 -12 -6 -9 -15 4 -8 13 -15 21 -15 10 0 13 -6 9 -16 -9 -23 4 -64
20 -64 8 0 14 -5 14 -11 0 -5 5 -7 11 -3 8 5 6 10 -5 16 -37 21 -1 77 40 61
11 -4 23 2 35 18 26 34 23 44 -6 25 -27 -18 -45 -14 -45 10 0 15 -12 19 -23 7z"/>
<path d="M4094 3394 c-49 -52 -53 -64 -26 -71 21 -5 45 -63 36 -87 -3 -8 -22
-20 -42 -26 -20 -5 -44 -19 -53 -31 -16 -21 -16 -21 -11 10 2 17 8 28 13 25 5
-3 16 2 25 10 8 9 26 16 39 16 22 0 23 2 11 24 -7 13 -22 35 -34 48 -12 12
-29 33 -39 46 -18 23 -19 23 -67 7 -27 -9 -68 -17 -92 -18 -36 0 -44 -4 -49
-24 -5 -23 -25 -33 -25 -13 0 16 -52 59 -72 60 -10 0 -18 -9 -20 -22 -2 -15
-11 -24 -26 -26 -18 -3 -21 -8 -16 -28 5 -19 1 -26 -19 -33 -35 -13 -44 -32
-22 -47 12 -9 24 -10 42 -3 17 6 30 6 38 -1 7 -6 19 -9 26 -8 15 3 25 -31 12
-41 -13 -10 -33 -49 -33 -66 0 -8 -9 -15 -20 -15 -11 0 -19 5 -18 11 5 18 -21
22 -28 5 -9 -24 14 -46 47 -46 22 0 30 6 35 25 8 34 18 32 63 -15 34 -36 64
-48 96 -40 62 16 175 -6 175 -35 0 -19 37 -62 58 -67 11 -3 32 7 53 26 35 30
36 33 31 89 -3 41 -9 57 -19 57 -22 0 -156 -41 -170 -53 -9 -6 -13 -6 -13 1 0
12 121 72 145 72 13 0 33 10 73 36 2 1 -3 15 -11 31 -8 15 -12 34 -10 41 3 7
0 19 -6 26 -9 10 -8 15 5 20 13 5 15 14 9 44 -4 20 -13 41 -21 45 -8 4 -14 16
-14 25 0 13 7 9 25 -13 l25 -30 -2 50 c-3 47 -5 50 -32 53 -23 3 -36 -5 -72
-44z m66 16 c0 -5 -4 -10 -10 -10 -5 0 -10 5 -10 10 0 6 5 10 10 10 6 0 10 -4
10 -10z m-265 -90 c3 -5 1 -10 -4 -10 -6 0 -11 5 -11 10 0 6 2 10 4 10 3 0 8
-4 11 -10z m71 -37 c-4 -4 -11 -1 -16 7 -16 25 -11 35 7 17 9 -9 13 -20 9 -24z
m-156 0 c0 -1 -10 -11 -22 -22 -15 -15 -33 -20 -65 -19 -45 2 -52 8 -30 26 13
11 117 25 117 15z m77 -39 c-3 -3 -12 -4 -19 -1 -8 3 -5 6 6 6 11 1 17 -2 13
-5z m-42 -29 c0 -27 -10 -33 -18 -11 -4 10 9 36 18 36 0 0 0 -11 0 -25z"/>
<path d="M3563 3424 c-19 -8 -16 -28 7 -57 19 -24 22 -25 52 -12 20 8 35 23
39 39 7 23 4 26 -19 26 -15 0 -36 2 -47 5 -11 2 -26 2 -32 -1z"/>
<path d="M2523 3412 c-8 -5 -9 -13 -3 -22 11 -17 23 -8 18 14 -2 9 -8 12 -15
8z"/>
<path d="M3080 3360 c-11 -11 -20 -30 -20 -42 0 -21 0 -21 21 -2 11 10 25 26
30 36 14 26 -7 32 -31 8z"/>
<path d="M2410 3363 c0 -5 4 -15 10 -23 11 -18 25 -7 17 15 -6 15 -27 21 -27
8z"/>
<path d="M1670 3340 c-12 -8 -10 -10 8 -10 13 0 20 4 17 10 -7 12 -6 12 -25 0z"/>
<path d="M3122 3311 c-7 -4 -17 -23 -22 -41 -8 -27 -7 -36 5 -43 20 -11 21
-110 2 -126 -8 -6 -17 -8 -20 -4 -10 10 -8 -10 3 -27 8 -12 16 -8 45 24 38 43
41 51 24 62 -6 4 -8 17 -3 33 15 56 -7 139 -34 122z"/>
<path d="M3410 3284 c0 -8 5 -12 10 -9 6 3 10 10 10 16 0 5 -4 9 -10 9 -5 0
-10 -7 -10 -16z"/>
<path d="M3542 3287 c-12 -14 -5 -57 9 -57 4 0 15 10 23 22 11 16 13 25 4 35
-13 16 -23 16 -36 0z"/>
<path d="M3310 3280 c0 -5 5 -10 10 -10 6 0 10 5 10 10 0 6 -4 10 -10 10 -5 0
-10 -4 -10 -10z"/>
<path d="M2477 3260 c-4 -15 -11 -21 -21 -17 -9 4 -16 2 -16 -3 0 -6 0 -13 0
-17 0 -9 51 -14 73 -7 21 6 23 34 2 34 -7 0 -18 7 -23 16 -8 14 -10 13 -15 -6z"/>
<path d="M2585 3248 c-8 -19 27 -59 43 -49 7 4 3 17 -13 36 -20 25 -24 27 -30
13z"/>
<path d="M2685 3220 c-9 -15 10 -35 45 -50 17 -7 30 -16 30 -21 0 -5 5 -9 10
-9 6 0 10 9 10 20 0 13 -5 18 -15 14 -8 -4 -15 -1 -15 5 0 13 -36 51 -49 51
-6 0 -13 -5 -16 -10z"/>
<path d="M988 3204 c-28 -15 -38 -37 -42 -94 -2 -22 2 -30 15 -30 9 0 21 6 26
13 9 12 36 118 31 123 -2 1 -15 -4 -30 -12z"/>
<path d="M3327 3203 c-13 -12 -7 -23 12 -23 26 0 35 16 15 24 -19 7 -19 7 -27
-1z"/>
<path d="M3180 3171 c0 -16 6 -31 15 -35 12 -4 15 3 15 29 0 24 -5 35 -15 35
-10 0 -15 -10 -15 -29z"/>
<path d="M1580 3174 c0 -8 5 -12 10 -9 6 3 10 10 10 16 0 5 -4 9 -10 9 -5 0
-10 -7 -10 -16z"/>
<path d="M2360 3180 c-17 -10 -14 -15 17 -24 25 -8 42 12 22 25 -17 11 -21 11
-39 -1z"/>
<path d="M3460 3180 c0 -5 5 -10 10 -10 6 0 10 5 10 10 0 6 -4 10 -10 10 -5 0
-10 -4 -10 -10z"/>
<path d="M2533 3158 c12 -13 24 -19 26 -14 2 5 -4 15 -15 23 -28 21 -35 15
-11 -9z"/>
<path d="M2453 3141 c-18 -28 -16 -45 5 -72 19 -22 19 -22 45 -3 30 21 34 34
12 34 -8 0 -15 5 -15 10 0 6 -6 10 -14 10 -8 0 -16 9 -18 20 l-3 21 -12 -20z"/>
<path d="M1595 3120 c4 -6 11 -8 16 -5 14 9 11 15 -7 15 -8 0 -12 -5 -9 -10z"/>
<path d="M4206 3114 c-21 -21 -20 -22 9 -16 25 4 32 16 16 27 -5 3 -17 -2 -25
-11z"/>
<path d="M2990 3085 c-7 -9 -11 -18 -8 -20 6 -7 68 18 68 27 0 14 -47 8 -60
-7z"/>
<path d="M3235 3090 c-3 -5 -22 -10 -41 -10 -22 0 -36 -5 -39 -15 -12 -37 -40
-87 -49 -86 -31 3 -44 -3 -54 -24 -8 -17 -20 -25 -37 -25 -31 0 -35 -25 -20
-127 5 -35 3 -42 -13 -47 -15 -5 -19 -16 -19 -51 0 -46 3 -50 31 -39 15 6 15
8 1 18 -13 10 -13 16 6 54 12 23 34 56 50 73 16 17 29 38 29 47 0 8 12 39 27
67 25 51 27 52 57 44 17 -5 32 -9 33 -9 1 0 7 9 13 20 8 14 7 25 -2 39 -9 15
-9 23 1 35 8 9 20 16 27 16 8 0 14 7 14 15 0 17 -6 19 -15 5z m-191 -229 c6
-10 -22 -37 -29 -29 -8 7 5 38 15 38 5 0 11 -4 14 -9z"/>
<path d="M2585 3058 c-4 -14 -16 -34 -26 -44 -19 -17 -20 -17 -26 4 -3 12 -11
22 -19 22 -17 0 -31 -23 -16 -28 7 -2 19 -11 28 -19 12 -12 12 -18 3 -23 -6
-4 -8 -13 -5 -19 11 -17 44 5 48 31 4 30 49 46 81 29 23 -12 70 -11 83 2 4 4
-14 7 -39 7 -33 0 -47 4 -47 14 0 7 -7 19 -15 26 -12 10 -15 10 -15 -1 0 -8
-6 -5 -14 7 -14 18 -15 18 -21 -8z"/>
<path d="M2902 3069 c2 -6 7 -10 11 -10 4 1 14 1 22 1 8 0 15 5 15 10 0 6 -12
10 -26 10 -14 0 -24 -5 -22 -11z"/>
<path d="M1520 3066 c0 -13 50 -58 61 -54 6 2 -5 16 -25 31 -20 16 -36 26 -36
23z"/>
<path d="M3402 3048 c-20 -20 -15 -48 9 -48 18 0 19 3 9 15 -7 8 -10 22 -6 30
7 18 4 19 -12 3z"/>
<path d="M3050 3009 c0 -24 23 -21 28 4 2 10 -3 17 -12 17 -10 0 -16 -9 -16
-21z"/>
<path d="M2830 3002 c0 -19 -29 -65 -30 -46 0 5 5 15 12 22 18 18 0 27 -20 9
-23 -21 -27 -61 -6 -53 9 4 12 2 8 -5 -3 -6 6 -23 20 -38 21 -22 33 -26 61
-23 l35 4 -25 24 c-19 18 -23 29 -19 52 6 30 -9 72 -26 72 -6 0 -10 -8 -10
-18z"/>
<path d="M2882 2994 c14 -14 21 -15 30 -6 8 8 9 12 1 12 -6 0 -20 3 -30 6 -17
7 -17 6 -1 -12z"/>
<path d="M2966 2997 c-16 -12 -17 -16 -5 -35 18 -29 33 -28 54 4 14 22 15 28
4 35 -19 12 -32 11 -53 -4z"/>
<path d="M3455 2970 c-3 -5 -2 -10 4 -10 5 0 13 5 16 10 3 6 2 10 -4 10 -5 0
-13 -4 -16 -10z"/>
<path d="M1763 2955 c-7 -8 -13 -21 -13 -29 0 -10 -6 -13 -15 -10 -10 4 -13
13 -10 25 4 11 2 19 -4 19 -5 0 -13 -9 -16 -20 -3 -11 -10 -20 -15 -20 -5 0
-14 -9 -19 -19 -9 -16 -8 -18 9 -14 11 3 23 9 26 14 3 5 13 5 24 -1 15 -8 22
-4 39 26 12 19 21 37 21 40 0 9 -15 3 -27 -11z"/>
<path d="M1420 2925 c0 -37 6 -41 30 -24 11 8 12 12 3 16 -7 2 -13 13 -13 24
0 10 -4 19 -10 19 -5 0 -10 -16 -10 -35z"/>
<path d="M2893 2935 c0 -15 5 -25 13 -25 8 0 14 7 14 15 0 8 -5 15 -11 15 -5
0 -7 5 -4 10 3 6 2 10 -3 10 -5 0 -9 -11 -9 -25z"/>
<path d="M3193 2940 c-3 -11 -13 -20 -23 -20 -25 0 -36 -18 -44 -70 -7 -46
-47 -100 -73 -100 -17 0 -16 -29 3 -75 15 -36 16 -37 35 -19 11 10 29 34 41
53 29 46 56 73 68 66 11 -7 40 22 40 41 0 23 -25 27 -59 10 -41 -22 -45 -8
-12 40 28 42 51 47 51 12 0 -34 13 -12 17 29 5 48 -33 77 -44 33z"/>
<path d="M3859 2937 c-19 -13 -42 -26 -51 -30 -22 -8 -23 -21 -2 -38 13 -11
19 -8 38 16 23 29 23 29 35 8 23 -44 61 -69 61 -40 0 8 9 22 20 32 11 10 20
22 20 27 0 4 -9 8 -20 8 -11 0 -29 9 -40 20 -25 25 -20 25 -61 -3z"/>
<path d="M2742 2929 c-11 -18 -15 -18 -33 -5 -18 12 -23 11 -46 -10 -14 -13
-31 -21 -37 -17 -6 4 -5 -1 3 -10 9 -11 10 -17 2 -17 -6 0 -11 -10 -11 -21 0
-18 -2 -19 -15 -9 -8 7 -12 17 -9 22 4 6 -3 5 -15 -1 -11 -7 -21 -19 -21 -27
0 -22 -24 -12 -29 12 -4 24 -18 33 -42 27 -16 -5 -17 -8 -7 -21 11 -13 9 -14
-14 -8 -41 10 -36 -15 7 -38 23 -13 31 -22 24 -27 -7 -4 -18 -5 -25 -2 -21 8
-44 -36 -33 -65 5 -14 7 -32 4 -40 -8 -21 15 -33 37 -21 13 7 18 6 16 -3 -2
-9 8 -12 35 -10 31 2 37 0 37 -16 0 -10 11 -24 25 -30 20 -9 24 -17 20 -35 -4
-15 -1 -28 9 -36 22 -18 20 -37 -5 -62 -29 -29 -19 -44 14 -19 15 12 34 19 42
16 8 -3 24 3 37 14 28 23 17 37 -32 42 -50 4 -48 33 2 33 24 0 44 8 60 22 13
12 35 26 50 32 18 7 26 15 22 25 -7 19 26 29 57 18 36 -13 74 -1 74 23 0 13
-7 20 -20 20 -13 0 -19 6 -17 17 1 9 -6 19 -18 23 -27 9 -14 28 13 20 15 -4
18 -3 9 3 -7 5 -11 15 -8 23 3 8 -7 24 -22 36 l-28 21 -2 -25 c-1 -14 -4 -29
-8 -34 -7 -12 -51 -12 -59 1 -6 10 6 14 38 11 21 -3 23 17 2 25 -8 4 -15 18
-15 34 0 15 -7 34 -17 41 -9 8 -21 26 -27 41 -11 26 -12 26 -24 7z m-162 -115
c-18 -21 -24 -10 -9 18 8 14 14 18 17 10 2 -7 -2 -19 -8 -28z m191 -7 c-13
-13 -15 1 -4 30 7 17 8 17 11 -1 2 -10 -1 -23 -7 -29z m-140 -60 c-11 -11 -25
28 -15 45 5 7 10 3 16 -12 5 -14 5 -27 -1 -33z m264 33 c3 -5 -1 -10 -10 -10
-9 0 -13 5 -10 10 3 6 8 10 10 10 2 0 7 -4 10 -10z m-161 -50 c7 -24 6 -24 -8
-6 -9 11 -16 29 -16 40 1 17 2 18 9 6 5 -8 12 -26 15 -40z m156 -72 c0 -14
-13 -9 -37 14 -33 31 -28 43 7 16 17 -12 30 -25 30 -30z m-189 21 c-18 -11
-38 -18 -45 -16 -13 4 42 36 64 37 8 0 0 -9 -19 -21z m-61 -78 c0 -5 -9 -7
-20 -4 -11 3 -20 7 -20 9 0 2 9 4 20 4 11 0 20 -4 20 -9z"/>
<path d="M3543 2943 c-15 -5 -17 -23 -4 -23 5 0 11 7 15 15 3 8 4 15 3 14 -1
0 -8 -3 -14 -6z"/>
<path d="M2930 2915 c0 -15 4 -24 10 -20 6 3 10 12 10 20 0 8 -4 17 -10 20 -6
4 -10 -5 -10 -20z"/>
<path d="M3301 2921 c-16 -12 -22 -24 -18 -35 4 -10 12 -14 18 -11 6 4 8 13 5
21 -3 8 1 14 8 14 8 0 19 -20 25 -46 10 -40 10 -49 -4 -64 -12 -13 -13 -20 -5
-25 21 -13 42 21 44 69 1 25 5 49 9 52 16 16 5 23 -25 17 -26 -5 -30 -4 -25
10 8 22 -2 21 -32 -2z"/>
<path d="M2495 2920 c-3 -5 1 -13 10 -16 22 -9 29 1 11 15 -10 8 -16 9 -21 1z"/>
<path d="M1527 2913 c-36 -6 -29 -28 9 -28 19 0 30 6 32 18 2 9 0 16 -5 16 -4
-1 -21 -4 -36 -6z"/>
<path d="M1352 2886 c1 -10 8 -17 13 -17 15 1 12 24 -3 29 -9 3 -13 -2 -10
-12z"/>
<path d="M1610 2869 c0 -5 5 -7 10 -4 6 3 10 8 10 11 0 2 -4 4 -10 4 -5 0 -10
-5 -10 -11z"/>
<path d="M3537 2835 c-15 -19 -24 -35 -19 -35 6 0 17 11 26 25 9 14 23 25 31
25 8 0 15 5 15 10 0 21 -26 9 -53 -25z"/>
<path d="M2935 2850 c-3 -5 -1 -10 4 -10 6 0 11 5 11 10 0 6 -2 10 -4 10 -3 0
-8 -4 -11 -10z"/>
<path d="M2030 2843 c0 -5 5 -15 10 -23 9 -13 11 -13 19 0 5 8 7 18 5 22 -6
10 -34 11 -34 1z"/>
<path d="M2875 2840 c3 -5 10 -10 16 -10 5 0 9 5 9 10 0 6 -7 10 -16 10 -8 0
-12 -4 -9 -10z"/>
<path d="M1294 2815 c4 -16 2 -33 -5 -41 -9 -11 -9 -21 -1 -39 15 -33 31 -32
43 4 6 16 17 32 25 35 24 9 15 31 -18 46 -18 7 -37 16 -42 18 -5 3 -6 -8 -2
-23z"/>
<path d="M3617 2833 c-10 -9 -9 -23 2 -23 5 0 11 7 15 15 5 15 -5 20 -17 8z"/>
<path d="M1846 2813 c-3 -10 -9 -24 -12 -30 -3 -8 2 -13 14 -13 23 0 35 35 17
50 -9 8 -14 6 -19 -7z"/>
<path d="M3730 2819 c0 -5 5 -7 10 -4 6 3 10 8 10 11 0 2 -4 4 -10 4 -5 0 -10
-5 -10 -11z"/>
<path d="M1630 2808 c1 -15 24 -48 34 -48 13 0 5 48 -10 54 -22 8 -24 8 -24
-6z"/>
<path d="M1534 2799 c-3 -6 0 -15 7 -20 11 -6 11 -11 1 -21 -18 -18 -15 -38 6
-38 23 0 46 49 26 57 -8 3 -14 11 -14 19 0 17 -16 18 -26 3z"/>
<path d="M3711 2795 c-1 -5 -5 -16 -10 -24 -8 -12 -12 -12 -26 3 -26 26 -46
16 -72 -36 -26 -52 -78 -98 -111 -98 -30 0 -27 -12 8 -32 28 -16 29 -16 35 3
4 10 17 22 30 25 14 3 26 16 30 31 11 46 34 71 58 65 50 -12 61 -38 21 -48
-19 -5 -24 -11 -21 -26 3 -11 0 -21 -9 -25 -26 -10 -15 -21 21 -21 27 0 35 4
35 17 0 30 32 49 90 53 45 2 55 0 58 -14 2 -12 -3 -18 -14 -18 -31 0 -84 -24
-84 -38 0 -9 -7 -11 -20 -7 -16 5 -20 2 -20 -14 0 -14 -7 -22 -20 -22 -11 -1
-26 -2 -32 -3 -7 -1 -19 -7 -26 -13 -7 -7 -20 -13 -28 -13 -8 0 -12 -4 -9 -10
3 -5 17 -10 30 -10 15 0 26 -7 30 -20 6 -19 7 -19 50 2 48 23 68 19 43 -9 -9
-10 -18 -35 -22 -55 -11 -62 14 -119 31 -70 3 9 12 24 20 33 13 15 17 15 44 2
32 -16 39 -47 12 -57 -15 -6 -15 -8 0 -23 16 -16 18 -16 37 5 27 28 75 29 90
2 9 -16 8 -20 -5 -20 -9 0 -30 -10 -48 -22 -18 -13 -34 -24 -36 -25 -12 -8 33
-39 58 -41 27 -2 30 1 28 25 -2 23 3 29 23 31 14 2 28 9 31 14 11 17 49 -24
49 -53 0 -15 12 -39 30 -58 l30 -31 40 26 c22 15 37 30 34 35 -3 5 0 18 6 29
6 11 8 30 5 41 -6 19 -13 20 -78 15 -71 -5 -72 -5 -32 9 22 7 50 14 62 14 12
1 24 5 27 10 3 4 20 11 37 15 25 5 29 9 20 19 -18 22 -9 100 13 118 19 15 19
19 4 60 -16 47 -23 108 -11 95 5 -4 9 -12 9 -17 1 -5 3 -12 4 -16 1 -5 3 -14
4 -22 0 -8 6 -16 12 -18 7 -2 14 16 18 46 13 95 -34 114 -116 48 -37 -30 -39
-30 -71 -15 -34 16 -75 15 -113 -4 -35 -17 -59 -6 -57 25 2 33 -4 34 -34 5
-29 -27 -42 -16 -50 41 -7 51 -14 56 -46 31 l-26 -21 -11 21 c-6 11 -17 20
-24 20 -7 0 -18 10 -24 23 -6 12 -11 18 -11 12z m461 -309 c4 -28 3 -54 0 -58
-4 -4 -25 -10 -47 -13 -27 -3 -46 -13 -62 -32 -12 -16 -22 -22 -23 -15 0 6 5
12 10 12 6 0 10 9 10 21 0 11 4 18 9 14 5 -3 12 -1 16 5 3 5 22 10 40 10 34 0
34 1 28 33 -3 17 -12 37 -19 42 -6 6 -14 21 -17 35 -3 14 -9 36 -12 50 -6 21
-2 19 26 -14 25 -29 36 -54 41 -90z m-148 82 c23 -36 32 -82 15 -76 -8 2 -16
18 -17 34 -2 16 -11 37 -19 47 -10 10 -12 17 -5 17 6 0 18 -10 26 -22z m-130
-15 c-11 -45 -24 -51 -24 -10 0 26 4 37 15 37 12 0 14 -7 9 -27z m91 -9 c13
-21 14 -24 0 -24 -8 0 -21 13 -30 30 -13 25 -13 29 -1 24 8 -3 22 -17 31 -30z
m10 -74 c-3 -5 -17 -10 -30 -10 -13 0 -27 5 -30 10 -4 6 8 10 30 10 22 0 34
-4 30 -10z m-132 -20 c-3 -11 -12 -20 -21 -20 -13 0 -12 3 3 20 10 11 19 20
21 20 1 0 0 -9 -3 -20z m52 10 c-3 -5 -10 -10 -16 -10 -5 0 -9 5 -9 10 0 6 7
10 16 10 8 0 12 -4 9 -10z"/>
<path d="M3900 2768 c0 -18 18 -34 28 -24 3 4 -2 14 -11 23 -16 16 -17 16 -17
1z"/>
<path d="M1455 2743 c8 -31 13 -39 20 -31 9 9 -6 58 -17 58 -6 0 -7 -11 -3
-27z"/>
<path d="M1385 2750 c-15 -24 -6 -78 19 -114 14 -22 26 -45 26 -52 0 -17 30
-19 31 -1 3 25 -3 42 -17 50 -8 4 -14 14 -14 21 0 8 -7 17 -15 20 -12 4 -14
14 -10 40 7 33 -7 57 -20 36z"/>
<path d="M1760 2735 c0 -8 7 -15 15 -15 8 0 15 4 15 9 0 5 -7 11 -15 15 -9 3
-15 0 -15 -9z"/>
<path d="M3313 2739 c-16 -16 -5 -39 17 -39 20 0 50 25 50 41 0 13 -54 11 -67
-2z"/>
<path d="M3242 2728 c-15 -15 -15 -35 -1 -43 14 -10 49 24 42 41 -6 17 -25 18
-41 2z"/>
<path d="M1706 2715 c4 -8 10 -12 15 -9 14 8 10 24 -6 24 -9 0 -12 -6 -9 -15z"/>
<path d="M1907 2703 c-12 -11 -8 -23 8 -23 8 0 15 7 15 15 0 16 -12 20 -23 8z"/>
<path d="M1830 2680 c0 -5 5 -10 10 -10 6 0 10 5 10 10 0 6 -4 10 -10 10 -5 0
-10 -4 -10 -10z"/>
<path d="M1044 2635 c-10 -26 6 -38 27 -19 10 9 19 21 19 26 0 14 -40 9 -46
-7z"/>
<path d="M3245 2640 c-3 -5 -1 -10 4 -10 6 0 11 5 11 10 0 6 -2 10 -4 10 -3 0
-8 -4 -11 -10z"/>
<path d="M3348 2643 c-23 -6 -23 -15 2 -31 11 -7 20 -20 20 -31 0 -21 30 -51
51 -51 10 1 8 5 -5 15 -17 13 -18 17 -6 42 23 45 23 46 12 39 -6 -3 -17 1 -25
9 -16 15 -19 16 -49 8z"/>
<path d="M1742 2628 c3 -7 13 -15 24 -17 16 -3 17 -1 5 13 -16 19 -34 21 -29
4z"/>
<path d="M1133 2598 c-11 -13 -26 -33 -32 -46 -10 -19 -9 -23 6 -28 10 -3 26
-10 35 -15 15 -7 21 -2 33 28 29 68 1 108 -42 61z"/>
<path d="M2440 2610 c0 -5 5 -10 11 -10 5 0 7 5 4 10 -3 6 -8 10 -11 10 -2 0
-4 -4 -4 -10z"/>
<path d="M2795 2574 c-76 -46 -77 -47 -32 -42 37 4 37 4 37 -34 0 -21 5 -38
10 -38 6 0 10 7 10 15 0 13 6 11 30 -6 l29 -22 21 26 c11 14 30 29 41 32 21 7
20 7 -4 33 -14 15 -27 36 -29 47 -5 33 -47 29 -113 -11z"/>
<path d="M3085 2600 c-3 -5 -1 -10 4 -10 6 0 11 5 11 10 0 6 -2 10 -4 10 -3 0
-8 -4 -11 -10z"/>
<path d="M3184 2599 c-3 -6 -1 -16 5 -22 8 -8 11 -5 11 11 0 24 -5 28 -16 11z"/>
<path d="M1920 2580 c0 -5 5 -10 10 -10 6 0 10 5 10 10 0 6 -4 10 -10 10 -5 0
-10 -4 -10 -10z"/>
<path d="M2983 2583 c-20 -8 -15 -30 8 -36 26 -7 21 -28 -9 -42 -27 -12 -28
-27 -4 -48 20 -18 34 -13 26 8 -3 7 0 23 6 35 7 13 9 37 5 56 -6 34 -9 37 -32
27z"/>
<path d="M1292 2559 c-9 -14 -10 -25 -4 -31 11 -11 25 7 27 34 2 24 -7 23 -23
-3z"/>
<path d="M3262 2567 c-14 -16 -6 -27 20 -27 13 0 18 6 16 17 -4 22 -22 27 -36
10z"/>
<path d="M1773 2558 c-23 -30 -22 -37 7 -51 29 -15 30 -15 30 8 0 48 -18 68
-37 43z"/>
<path d="M3210 2540 c0 -10 -10 -26 -22 -34 -16 -12 -19 -19 -11 -27 8 -8 13
-5 18 10 3 12 15 26 26 31 23 13 25 26 4 34 -10 3 -15 -1 -15 -14z"/>
<path d="M1200 2542 c0 -5 7 -17 15 -28 8 -10 15 -29 15 -40 0 -12 7 -27 15
-34 8 -7 15 -19 15 -28 0 -8 2 -13 5 -10 6 6 -11 86 -26 126 -8 20 -39 32 -39
14z"/>
<path d="M2945 2540 c3 -5 8 -10 11 -10 2 0 4 5 4 10 0 6 -5 10 -11 10 -5 0
-7 -4 -4 -10z"/>
<path d="M1372 2508 c0 -18 11 -47 24 -65 13 -17 24 -39 24 -47 0 -18 16 -21
25 -5 4 5 0 18 -9 28 -9 10 -17 35 -19 57 -3 45 -12 64 -32 64 -9 0 -13 -11
-13 -32z"/>
<path d="M3095 2510 c-3 -5 -1 -10 4 -10 6 0 11 5 11 10 0 6 -2 10 -4 10 -3 0
-8 -4 -11 -10z"/>
<path d="M1140 2469 c0 -5 5 -7 10 -4 6 3 10 8 10 11 0 2 -4 4 -10 4 -5 0 -10
-5 -10 -11z"/>
<path d="M2909 2463 c-13 -16 -12 -17 4 -4 9 7 17 15 17 17 0 8 -8 3 -21 -13z"/>
<path d="M3415 2470 c3 -5 13 -10 21 -10 8 0 14 5 14 10 0 6 -9 10 -21 10 -11
0 -17 -4 -14 -10z"/>
<path d="M3030 2420 c0 -13 18 -22 24 -11 3 5 -1 11 -9 15 -8 3 -15 1 -15 -4z"/>
<path d="M2716 2396 c-3 -13 -21 -34 -41 -47 -38 -26 -43 -49 -23 -106 18 -50
44 -43 38 11 -1 10 3 15 8 12 6 -4 13 -2 16 3 3 5 28 8 55 7 35 -1 47 2 44 12
-3 7 1 20 8 30 13 15 12 16 -3 4 -14 -11 -24 -11 -53 -2 -31 10 -50 40 -26 40
5 0 17 7 26 16 14 15 14 17 -2 30 -26 20 -40 17 -47 -10z"/>
<path d="M2800 2406 c0 -10 9 -16 21 -16 24 0 21 23 -4 28 -10 2 -17 -3 -17
-12z"/>
<path d="M2873 2396 c1 -15 7 -26 13 -26 14 0 11 43 -4 48 -9 3 -12 -4 -9 -22z"/>
<path d="M1313 2393 c-3 -8 -1 -19 6 -26 6 -6 11 -24 11 -39 0 -15 5 -28 10
-28 6 0 10 8 10 18 0 10 7 28 16 40 18 27 13 38 -22 45 -17 3 -27 0 -31 -10z"/>
<path d="M1070 2380 c0 -14 38 -50 53 -50 18 0 37 21 37 40 0 12 -2 13 -9 1
-7 -11 -13 -11 -32 3 -26 18 -49 21 -49 6z"/>
<path d="M1478 2383 c-20 -5 -31 -30 -17 -39 6 -3 19 3 30 15 28 30 26 35 -13
24z"/>
<path d="M3560 2376 c0 -9 7 -12 20 -9 11 3 20 9 20 14 0 5 -9 9 -20 9 -11 0
-20 -6 -20 -14z"/>
<path d="M3300 2355 c0 -8 2 -15 4 -15 2 0 6 7 10 15 3 8 1 15 -4 15 -6 0 -10
-7 -10 -15z"/>
<path d="M3447 2356 c-3 -7 1 -20 9 -30 11 -16 16 -17 29 -6 20 17 19 23 -9
36 -19 9 -26 9 -29 0z"/>
<path d="M3060 2345 c0 -8 9 -19 20 -25 33 -18 20 -80 -17 -80 -18 0 -46 58
-39 84 5 20 5 20 -9 2 -11 -14 -12 -23 -4 -33 9 -9 7 -14 -5 -19 -8 -3 -21
-21 -28 -40 -10 -28 -14 -31 -27 -21 -11 9 -15 9 -18 0 -5 -15 -33 -17 -33 -3
0 6 6 10 14 10 7 0 16 12 19 28 6 33 -1 45 -10 14 -5 -23 -37 -30 -48 -12 -3
6 -16 10 -28 10 -19 0 -18 -3 12 -34 29 -30 32 -38 24 -63 -12 -34 -55 -47
-46 -13 7 25 -22 60 -49 60 -26 0 -22 -15 9 -40 22 -17 25 -25 17 -38 -6 -9
-20 -21 -32 -27 -40 -18 -23 -74 21 -67 9 2 17 -1 17 -6 0 -12 -29 -36 -36
-30 -3 3 -22 1 -42 -4 -20 -5 -51 -9 -68 -9 -17 1 -37 -5 -44 -14 -7 -8 -16
-12 -21 -9 -5 3 -9 -4 -9 -15 0 -12 6 -21 14 -21 7 0 19 -7 26 -15 19 -22 37
-18 44 10 4 17 13 25 28 25 11 0 27 8 35 18 10 12 16 14 19 5 3 -7 16 -13 29
-13 13 0 25 -5 27 -11 2 -6 14 -5 33 5 17 9 38 16 47 16 9 0 22 8 27 18 9 15
10 15 11 -5 0 -17 -12 -28 -47 -45 -51 -24 -70 -62 -38 -74 18 -7 55 22 55 43
0 8 6 13 13 11 24 -8 18 -38 -12 -66 -26 -24 -29 -31 -19 -44 9 -11 23 -15 44
-11 26 4 33 11 39 36 4 18 7 38 6 45 -3 16 36 52 55 52 7 0 14 5 16 11 5 14
88 2 88 -12 0 -5 -6 -9 -13 -9 -16 0 -40 -61 -28 -73 5 -5 18 4 30 20 35 47
41 53 56 53 8 0 15 -7 15 -15 0 -8 -7 -15 -16 -15 -8 0 -12 -5 -9 -11 4 -6 13
-8 20 -5 20 7 27 -22 7 -33 -9 -5 -21 -10 -27 -10 -5 -1 -10 -7 -11 -14 0 -6
-2 -20 -2 -29 -1 -10 -6 -18 -12 -18 -6 0 -6 9 0 26 10 24 9 25 -21 22 -28 -3
-32 -7 -35 -40 -2 -21 1 -38 6 -38 6 0 10 5 10 10 0 6 7 10 15 10 8 0 15 -3
15 -7 0 -5 16 -21 35 -36 32 -25 37 -27 51 -12 42 41 100 46 115 8 11 -30 43
-27 47 5 2 12 -1 22 -7 22 -6 0 -11 5 -11 10 0 6 6 10 13 10 8 0 22 9 32 20
16 17 16 24 6 47 -13 27 -13 27 8 9 22 -20 18 -40 -13 -66 -24 -19 -19 -27 21
-33 30 -5 41 -2 58 16 11 12 19 26 17 30 -4 14 19 37 38 37 13 0 17 6 13 20
-3 11 -1 21 3 21 5 1 19 3 32 4 12 1 25 5 29 8 3 3 14 -4 23 -16 10 -12 22
-18 27 -14 4 5 -4 19 -18 30 -14 12 -29 30 -32 40 -6 15 -10 16 -29 6 -19 -10
-24 -9 -36 9 -14 21 -15 21 -31 3 -20 -22 -81 -50 -63 -29 7 9 8 19 2 28 -14
23 -12 50 4 50 8 0 18 9 21 20 5 15 12 19 26 15 15 -5 19 -1 19 20 0 37 -28
44 -55 13 -11 -13 -27 -22 -34 -20 -10 3 -11 6 -1 12 10 6 10 15 1 41 -8 22
-8 35 -1 39 6 4 13 24 17 44 l6 38 -49 -8 c-27 -4 -53 -13 -59 -20 -14 -17
-75 -6 -76 15 -3 43 -5 51 -11 51 -32 0 -38 -2 -38 -14 0 -25 -26 -39 -51 -26
-17 10 -20 9 -14 -2 6 -10 5 -11 -6 0 -19 18 -28 15 -22 -8 4 -16 0 -20 -21
-20 -16 0 -26 6 -26 15 0 24 22 65 36 65 22 0 12 54 -11 60 -11 3 -21 16 -23
28 -4 25 -42 32 -42 7z m10 -125 c13 -8 12 -11 -5 -25 -58 -45 -84 -42 -60 6
16 30 38 36 65 19z m-110 -65 c7 -9 20 -13 27 -10 9 3 13 0 11 -7 -3 -7 -21
-14 -41 -15 -30 -2 -37 1 -37 16 0 33 20 40 40 16z m142 -47 c-7 -7 -12 -8
-12 -2 0 14 12 26 19 19 2 -3 -1 -11 -7 -17z m235 -18 c1 -11 -4 -20 -13 -20
-14 0 -19 21 -7 33 11 12 19 7 20 -13z m-72 -17 c0 -14 -4 -28 -10 -30 -5 -2
-10 11 -10 27 0 17 5 30 10 30 6 0 11 -12 10 -27z m-410 -3 c3 -5 -1 -10 -10
-10 -9 0 -13 5 -10 10 3 6 8 10 10 10 2 0 7 -4 10 -10z m492 -62 c-3 -8 -6 -5
-6 6 -1 11 2 17 5 13 3 -3 4 -12 1 -19z m66 10 c21 -11 21 -11 2 -18 -24 -9
-35 -4 -35 16 0 17 5 17 33 2z m-383 -23 c16 -19 1 -19 -24 0 -16 12 -17 15
-4 15 8 0 21 -7 28 -15z m215 -27 c-3 -12 -9 -26 -15 -32 -11 -11 -13 -2 -4
32 8 28 24 29 19 0z m138 5 c-7 -2 -19 -2 -25 0 -7 3 -2 5 12 5 14 0 19 -2 13
-5z m-350 -18 c-3 -9 -8 -14 -10 -11 -3 3 -2 9 2 15 9 16 15 13 8 -4z m441
-180 c-6 -16 -24 -21 -24 -7 0 11 11 22 21 22 5 0 6 -7 3 -15z"/>
<path d="M3209 2337 c-22 -16 -12 -37 17 -37 26 0 32 21 11 38 -8 7 -17 7 -28
-1z"/>
<path d="M4257 2336 c-6 -15 1 -26 15 -26 11 0 10 27 -1 34 -5 3 -11 0 -14 -8z"/>
<path d="M2480 2312 c0 -20 -29 -52 -47 -52 -16 0 -23 -27 -10 -38 8 -7 18 -6
31 4 13 9 22 10 26 4 8 -12 67 6 93 28 21 18 23 52 2 52 -9 0 -15 -9 -15 -25
0 -33 -28 -45 -46 -20 -12 16 -11 21 2 36 13 15 13 17 -1 23 -27 10 -35 7 -35
-12z"/>
<path d="M2875 2309 c-10 -15 3 -25 16 -12 7 7 7 13 1 17 -6 3 -14 1 -17 -5z"/>
<path d="M2915 2300 c4 -6 11 -8 16 -5 14 9 11 15 -7 15 -8 0 -12 -5 -9 -10z"/>
<path d="M1100 2281 c0 -14 5 -19 15 -14 17 6 15 25 -3 31 -7 2 -12 -5 -12
-17z"/>
<path d="M1417 2263 c-4 -3 0 -14 9 -24 8 -9 19 -29 23 -45 4 -15 12 -29 19
-32 18 -6 15 53 -3 68 -8 7 -15 19 -15 26 0 14 -22 19 -33 7z"/>
<path d="M3345 2221 c-6 -11 9 -23 19 -14 9 9 7 23 -3 23 -6 0 -12 -4 -16 -9z"/>
<path d="M2727 2213 c-4 -3 -7 -16 -7 -27 0 -24 35 -52 45 -36 4 6 -1 13 -9
16 -12 4 -13 11 -6 24 12 23 -5 41 -23 23z"/>
<path d="M1350 2170 c0 -5 5 -10 10 -10 6 0 10 5 10 10 0 6 -4 10 -10 10 -5 0
-10 -4 -10 -10z"/>
<path d="M3821 2164 c0 -11 3 -14 6 -6 3 7 2 16 -1 19 -3 4 -6 -2 -5 -13z"/>
<path d="M2615 2161 c-6 -11 9 -23 19 -14 9 9 7 23 -3 23 -6 0 -12 -4 -16 -9z"/>
<path d="M3588 2163 c-15 -4 -27 -23 -14 -23 2 0 11 -3 19 -6 8 -3 17 2 20 10
7 18 -1 24 -25 19z"/>
<path d="M1350 2131 c0 -12 5 -21 10 -21 6 0 10 6 10 14 0 8 -4 18 -10 21 -5
3 -10 -3 -10 -14z"/>
<path d="M1905 2140 c3 -5 8 -10 11 -10 2 0 4 5 4 10 0 6 -5 10 -11 10 -5 0
-7 -4 -4 -10z"/>
<path d="M2340 2131 c0 -6 5 -13 10 -16 6 -3 10 1 10 9 0 9 -4 16 -10 16 -5 0
-10 -4 -10 -9z"/>
<path d="M2456 2125 c-4 -12 -1 -16 11 -13 18 3 21 20 5 26 -5 1 -12 -4 -16
-13z"/>
<path d="M2598 2109 c-27 -29 -21 -45 7 -19 24 23 32 41 18 39 -5 0 -16 -9
-25 -20z"/>
<path d="M3470 2121 c0 -6 5 -13 10 -16 6 -3 10 1 10 9 0 9 -4 16 -10 16 -5 0
-10 -4 -10 -9z"/>
<path d="M1827 2087 c-8 -21 7 -90 21 -95 8 -2 12 12 12 52 0 41 -4 56 -14 56
-8 0 -16 -6 -19 -13z"/>
<path d="M2397 2087 c-22 -9 -27 -17 -25 -38 2 -19 -6 -33 -27 -52 -26 -23
-28 -28 -17 -46 15 -26 15 -31 -2 -31 -27 0 -48 31 -42 62 4 23 0 32 -24 50
-16 12 -32 30 -36 40 -7 22 -44 24 -44 3 0 -8 4 -15 8 -15 5 0 19 -14 32 -32
23 -31 23 -31 1 -25 -31 8 -48 -27 -30 -62 18 -33 39 -50 64 -51 11 0 29 -7
39 -15 11 -8 27 -15 35 -15 35 0 42 -14 27 -52 -9 -19 -12 -39 -8 -43 4 -5 1
-5 -7 0 -11 6 -12 1 -7 -28 4 -21 2 -38 -4 -42 -5 -3 -7 0 -4 9 3 8 -3 19 -15
25 -26 15 -31 14 -31 -4 0 -9 -6 -15 -12 -14 -34 5 -75 -15 -91 -43 -13 -23
-22 -29 -39 -25 -14 4 -26 0 -35 -11 -12 -16 -13 -15 -19 6 -3 12 -13 22 -20
22 -8 0 -14 5 -14 10 0 14 -53 13 -68 -2 -21 -21 -62 6 -62 42 0 16 -5 30 -10
30 -7 0 -9 -13 -5 -32 4 -26 0 -39 -19 -60 -14 -16 -27 -28 -29 -28 -3 0 -7
20 -10 45 -6 54 -8 58 -32 49 -13 -5 -16 -14 -11 -37 3 -16 1 -36 -5 -43 -6
-8 -9 -20 -6 -27 3 -8 1 -20 -4 -28 -7 -12 -11 -11 -25 3 -15 15 -16 21 -5 44
15 33 5 44 -31 37 -33 -6 -36 -28 -8 -43 11 -6 20 -20 20 -30 0 -11 5 -20 11
-20 15 0 0 -88 -22 -125 -11 -16 -19 -47 -19 -68 0 -31 -4 -39 -26 -47 -14 -6
-28 -19 -31 -29 -3 -11 -11 -22 -19 -25 -22 -8 -17 -30 15 -60 20 -19 35 -26
49 -22 31 10 58 -6 57 -34 0 -22 4 -25 30 -22 37 4 48 14 40 34 -4 10 -14 14
-26 11 -10 -3 -19 0 -19 6 0 6 4 11 9 11 4 0 25 11 45 25 35 24 36 24 36 3 0
-19 4 -20 52 -14 28 4 62 16 76 27 27 21 42 24 42 9 0 -5 -6 -10 -14 -10 -20
0 -31 -19 -18 -32 17 -17 115 -18 135 0 28 25 17 94 -20 115 -8 5 -18 20 -24
34 -6 17 -14 23 -25 19 -8 -3 -24 -1 -35 4 -16 9 -17 14 -6 32 9 16 9 22 0 25
-7 3 -13 12 -13 21 0 15 2 15 10 2 8 -12 10 -12 11 5 l0 20 9 -20 c5 -11 9
-32 9 -47 1 -19 6 -28 17 -28 11 0 14 5 9 18 -3 9 -9 30 -12 46 -5 26 -4 28
17 21 12 -4 20 -3 18 1 -31 54 -40 87 -30 110 23 49 47 14 28 -39 -10 -27 1
-46 27 -47 13 0 48 40 42 49 -2 5 4 11 15 14 12 3 27 22 35 44 23 57 29 65 53
74 l23 9 -18 -33 c-10 -17 -25 -38 -33 -45 -11 -10 -12 -15 -2 -18 17 -8 15
-31 -3 -38 -8 -3 -15 -11 -15 -18 0 -8 -25 -36 -55 -63 -30 -28 -55 -55 -55
-61 0 -6 11 -21 25 -34 30 -28 45 -19 70 46 19 50 40 54 40 6 0 -37 2 -38 32
-14 17 13 23 30 25 71 2 44 8 57 28 72 32 23 74 15 88 -16 12 -26 -3 -46 -51
-64 -16 -6 -27 -18 -27 -29 0 -11 -9 -31 -20 -45 -23 -30 -25 -46 -7 -72 10
-12 16 -14 21 -7 12 19 42 14 59 -10 13 -19 18 -21 34 -12 13 8 25 9 37 2 22
-13 34 -2 42 40 5 26 3 33 -12 38 -11 3 -30 11 -43 17 -20 10 -25 8 -43 -16
-21 -29 -43 -35 -51 -14 -8 22 12 57 32 57 13 0 27 12 36 30 9 17 17 30 19 30
3 0 19 -14 36 -32 l33 -32 18 23 c28 34 24 43 -17 35 -35 -7 -37 -6 -31 18 6
23 4 25 -21 21 -25 -3 -25 -3 -5 6 24 11 22 54 -3 44 -22 -8 -17 15 6 27 17 9
20 8 20 -10 0 -11 5 -20 10 -20 6 0 10 5 10 11 0 6 8 8 18 5 9 -2 28 -8 41
-11 22 -7 23 -5 19 23 -3 25 0 33 19 41 13 6 32 11 41 12 11 0 12 2 4 6 -10 4
-10 8 -1 19 6 8 15 12 19 9 10 -6 60 15 60 25 0 4 -6 26 -14 48 -8 22 -12 43
-9 45 3 3 0 14 -7 24 -7 11 -10 12 -7 3 5 -19 -19 -44 -33 -35 -8 5 -7 11 1
21 14 17 -2 19 -19 2 -9 -9 -10 -6 -6 13 3 13 8 34 11 46 4 17 0 25 -18 32
-20 7 -30 3 -59 -23 -31 -28 -32 -28 -10 -3 l25 28 -28 -10 c-22 -9 -29 -8
-33 4 -9 22 5 38 22 24 7 -6 20 -9 29 -5 18 6 9 36 -11 36 -9 0 -14 12 -14 33
0 19 -2 36 -5 39 -7 7 -68 -14 -87 -30 -22 -17 -26 -7 -21 49 4 52 3 53 -40
36z m13 -145 c0 -10 -7 -27 -15 -38 -13 -18 -14 -18 -9 6 9 38 13 50 19 50 3
0 5 -8 5 -18z m10 -87 c0 -8 -4 -15 -10 -15 -5 0 -10 7 -10 15 0 8 5 15 10 15
6 0 10 -7 10 -15z m200 -39 c0 -8 -4 -17 -9 -21 -12 -7 -24 12 -16 25 9 15 25
12 25 -4z m-40 -61 c0 -12 -42 -35 -63 -35 -7 1 4 8 23 17 32 15 33 17 13 20
-15 3 -23 12 -23 24 0 18 1 19 25 3 14 -9 25 -22 25 -29z m-652 -185 c-2 -5
-9 -6 -17 -1 -9 6 -11 16 -7 27 7 18 8 18 17 1 6 -10 9 -22 7 -27z m-58 -140
c-19 -13 -30 -13 -30 0 0 6 10 10 23 10 18 0 19 -2 7 -10z m128 -22 c-8 -12
-20 -24 -26 -26 -7 -2 -2 8 11 22 27 32 34 33 15 4z m-138 -102 c0 -9 -30 -14
-35 -6 -4 6 3 10 14 10 12 0 21 -2 21 -4z m210 -17 c0 -24 -23 -21 -28 4 -2
10 3 17 12 17 10 0 16 -9 16 -21z m17 -51 c-3 -7 -5 -2 -5 12 0 14 2 19 5 13
2 -7 2 -19 0 -25z"/>
<path d="M2000 2084 c0 -4 12 -26 27 -47 l27 -39 9 27 c7 19 6 31 -4 40 -17
16 -59 29 -59 19z"/>
<path d="M2260 2060 c0 -11 6 -20 14 -20 7 0 19 -7 26 -15 18 -22 30 -18 30
10 0 24 -25 45 -54 45 -9 0 -16 -9 -16 -20z"/>
<path d="M1254 2055 c-14 -35 23 -68 51 -45 17 14 7 33 -27 51 -14 7 -20 6
-24 -6z"/>
<path d="M1916 2052 c-8 -14 22 -82 44 -99 25 -20 36 4 13 29 -11 13 -27 36
-35 52 -9 18 -18 25 -22 18z"/>
<path d="M2670 2015 c0 -9 5 -15 11 -13 6 2 11 8 11 13 0 5 -5 11 -11 13 -6 2
-11 -4 -11 -13z"/>
<path d="M1796 1945 c1 -5 8 -22 16 -37 14 -29 34 -39 24 -12 -3 9 -6 22 -6
30 0 8 -6 14 -14 14 -8 0 -16 3 -19 8 -2 4 -3 3 -1 -3z"/>
<path d="M2030 1945 c7 -9 15 -13 17 -11 7 7 -7 26 -19 26 -6 0 -6 -6 2 -15z"/>
<path d="M1270 1933 c-25 -10 -29 -25 -14 -54 8 -16 14 -36 14 -47 0 -25 29
-61 36 -45 3 7 13 22 23 34 15 19 20 20 40 9 19 -10 25 -9 32 1 14 22 10 39
-8 39 -9 0 -31 16 -49 35 -31 34 -44 39 -74 28z"/>
<path d="M1486 1932 c-3 -5 2 -31 10 -58 8 -26 12 -55 9 -62 -3 -8 4 -25 15
-39 11 -14 20 -34 20 -44 0 -27 46 -26 55 1 6 20 -9 60 -24 60 -12 0 -31 47
-31 78 0 46 -11 72 -31 72 -10 0 -20 -4 -23 -8z"/>
<path d="M2082 1924 c9 -9 21 -13 27 -10 20 13 11 26 -16 26 -25 0 -26 -1 -11
-16z"/>
<path d="M2760 1915 c0 -14 7 -28 15 -32 20 -7 24 -3 27 28 2 18 -2 25 -19 27
-19 3 -23 -1 -23 -23z"/>
<path d="M1950 1899 c0 -5 5 -7 10 -4 6 3 10 8 10 11 0 2 -4 4 -10 4 -5 0 -10
-5 -10 -11z"/>
<path d="M3030 1885 c-13 -14 -21 -28 -17 -31 7 -7 46 35 47 49 0 12 -5 8 -30
-18z"/>
<path d="M1992 1893 l-23 -5 26 -24 c15 -14 28 -24 30 -22 6 7 25 47 25 52 0
6 -21 6 -58 -1z"/>
<path d="M2725 1880 c3 -5 10 -10 16 -10 5 0 9 5 9 10 0 6 -7 10 -16 10 -8 0
-12 -4 -9 -10z"/>
<path d="M2085 1838 c4 -13 11 -27 15 -32 15 -15 40 3 40 29 0 21 -5 25 -31
25 -27 0 -30 -3 -24 -22z"/>
<path d="M2768 1843 c-16 -2 -28 -11 -28 -18 0 -18 17 -28 32 -18 7 4 22 7 33
8 23 0 28 29 5 31 -8 1 -27 -1 -42 -3z"/>
<path d="M2280 1815 c0 -23 24 -45 36 -33 7 7 -17 58 -28 58 -4 0 -8 -11 -8
-25z"/>
<path d="M3572 1811 c-31 -29 -43 -61 -22 -61 5 0 15 9 22 20 10 15 24 20 57
20 l44 0 -23 25 c-30 32 -39 31 -78 -4z"/>
<path d="M1650 1812 c-16 -17 -16 -62 0 -62 8 0 30 53 30 71 0 14 -13 9 -30
-9z"/>
<path d="M2000 1806 c0 -14 5 -28 11 -31 14 -9 18 -4 21 25 2 16 -3 25 -14 28
-13 3 -18 -3 -18 -22z"/>
<path d="M2136 1765 c-3 -8 -1 -15 4 -15 6 0 10 7 10 15 0 8 -2 15 -4 15 -2 0
-6 -7 -10 -15z"/>
<path d="M1440 1766 c0 -15 32 -76 40 -76 6 0 10 18 10 40 0 36 -2 40 -25 40
-14 0 -25 -2 -25 -4z"/>
<path d="M2780 1755 c0 -8 7 -15 15 -15 8 0 15 7 15 15 0 8 -7 15 -15 15 -8 0
-15 -7 -15 -15z"/>
<path d="M2969 1752 c5 -10 17 -25 26 -32 13 -11 15 -10 10 3 -4 8 -1 18 4 22
17 10 2 25 -25 25 -21 0 -23 -3 -15 -18z"/>
<path d="M1980 1750 c0 -5 5 -10 10 -10 6 0 10 5 10 10 0 6 -4 10 -10 10 -5 0
-10 -4 -10 -10z"/>
<path d="M1752 1731 c2 -7 7 -12 11 -12 12 1 9 15 -3 20 -7 2 -11 -2 -8 -8z"/>
<path d="M2740 1732 c0 -4 7 -17 15 -29 11 -15 12 -28 6 -45 l-9 -23 -7 28
c-4 15 -10 27 -14 27 -9 0 -81 -60 -81 -68 0 -4 5 -14 10 -22 9 -13 12 -13 24
3 11 14 25 18 58 15 39 -3 43 -1 41 20 -2 14 3 22 12 22 24 0 17 37 -11 59
-28 22 -44 27 -44 13z"/>
<path d="M3520 1710 c0 -5 5 -10 10 -10 6 0 10 5 10 10 0 6 -4 10 -10 10 -5 0
-10 -4 -10 -10z"/>
<path d="M1600 1685 c0 -8 5 -15 10 -15 6 0 10 7 10 15 0 8 -4 15 -10 15 -5 0
-10 -7 -10 -15z"/>
<path d="M2105 1680 c3 -5 8 -10 11 -10 2 0 4 5 4 10 0 6 -5 10 -11 10 -5 0
-7 -4 -4 -10z"/>
<path d="M2890 1680 c0 -5 5 -10 10 -10 6 0 10 5 10 10 0 6 -4 10 -10 10 -5 0
-10 -4 -10 -10z"/>
<path d="M3095 1680 c4 -6 11 -8 16 -5 14 9 11 15 -7 15 -8 0 -12 -5 -9 -10z"/>
<path d="M1466 1631 c-4 -5 -2 -12 3 -15 5 -4 12 -2 15 3 4 5 2 12 -3 15 -5 4
-12 2 -15 -3z"/>
<path d="M1630 1626 c0 -17 24 -38 33 -29 15 15 6 43 -13 43 -11 0 -20 -6 -20
-14z"/>
<path d="M2622 1578 c-19 -19 -14 -30 8 -18 11 6 20 15 20 20 0 14 -14 12 -28
-2z"/>
<path d="M2942 1540 c0 -14 2 -19 5 -12 2 6 2 18 0 25 -3 6 -5 1 -5 -13z"/>
<path d="M2375 1540 c-3 -5 -1 -10 4 -10 6 0 11 5 11 10 0 6 -2 10 -4 10 -3 0
-8 -4 -11 -10z"/>
<path d="M3143 1543 c-7 -2 -13 -18 -13 -33 0 -23 -12 -63 -26 -88 0 -1 -9 0
-18 4 -10 4 -15 15 -14 32 4 35 -17 38 -47 8 -34 -34 -85 -36 -85 -3 0 31 -15
51 -34 44 -9 -4 -16 -18 -16 -35 0 -15 -7 -37 -15 -48 -8 -10 -15 -27 -15 -38
0 -12 -5 -16 -15 -12 -8 3 -21 9 -29 12 -10 4 -16 -2 -18 -18 -3 -20 -8 -23
-41 -22 -24 1 -36 -3 -33 -10 3 -6 12 -35 21 -63 18 -59 29 -70 51 -52 14 11
13 15 -7 29 -12 10 -19 22 -15 28 11 18 35 2 52 -35 21 -42 59 -44 59 -3 0 20
-5 26 -30 28 -53 6 -76 57 -25 57 21 0 30 -5 30 -16 0 -24 21 -38 58 -37 18 1
40 -6 50 -15 12 -11 22 -13 34 -6 28 15 107 -1 120 -25 6 -12 15 -24 21 -27 5
-4 5 -14 -2 -27 -6 -11 -11 -38 -11 -60 0 -27 -5 -42 -15 -46 -19 -7 -45 -65
-45 -99 0 -36 53 -51 115 -32 51 15 75 8 75 -21 0 -8 6 -14 14 -14 23 0 28 17
8 25 -14 5 -11 9 16 20 38 17 49 39 31 63 -13 16 -12 16 4 3 40 -31 127 -17
145 24 7 14 23 30 37 37 20 9 23 16 18 36 -4 17 -2 23 6 18 21 -13 13 -56 -13
-66 -33 -12 -42 -30 -16 -30 22 0 60 19 72 35 25 33 -16 105 -59 105 -10 0
-28 7 -40 15 -21 15 -23 14 -38 -14 -8 -17 -15 -36 -15 -43 0 -7 -16 -30 -34
-50 -33 -37 -56 -48 -56 -28 0 6 6 10 14 10 7 0 22 17 31 38 10 20 28 49 41
64 14 17 21 36 18 50 -16 73 -28 108 -39 108 -18 0 -45 34 -45 56 0 10 -15 33
-33 50 -37 37 -91 49 -127 28 -47 -25 -53 -19 -46 41 3 30 5 55 4 54 -2 0 -9
-3 -15 -6z m22 -257 c2 -20 -1 -36 -6 -36 -5 0 -9 19 -9 42 0 49 10 45 15 -6z
m221 19 c15 -23 14 -27 -10 -80 -22 -48 -28 -55 -53 -54 -27 0 -27 1 -5 11 15
8 22 20 22 40 0 25 21 108 27 108 1 0 10 -11 19 -25z m-106 -195 c0 -5 -2 -10
-4 -10 -3 0 -8 5 -11 10 -3 6 -1 10 4 10 6 0 11 -4 11 -10z"/>
<path d="M3366 1292 c-11 -18 -14 -72 -4 -72 10 0 21 43 16 67 -3 14 -5 15
-12 5z"/>
<path d="M2658 1493 c-23 -11 -28 -21 -28 -49 0 -28 4 -35 18 -32 9 2 18 13
20 26 2 14 10 22 22 22 25 0 35 17 20 35 -15 17 -16 17 -52 -2z"/>
<path d="M2750 1475 c0 -16 16 -20 24 -6 3 5 -1 11 -9 15 -9 3 -15 0 -15 -9z"/>
<path d="M3561 1471 c-17 -11 -7 -41 13 -41 13 0 26 20 26 41 0 11 -21 11 -39
0z"/>
<path d="M2736 1425 c-16 -12 -17 -17 -6 -30 12 -14 15 -14 30 0 9 8 19 12 23
9 3 -3 11 -3 17 1 7 5 2 12 -15 21 -15 8 -28 14 -29 14 0 0 -10 -7 -20 -15z"/>
<path d="M3740 1425 c-10 -12 -10 -19 -2 -27 9 -9 16 -7 27 8 8 10 15 22 15
27 0 13 -27 7 -40 -8z"/>
<path d="M2540 1387 c0 -30 6 -36 31 -30 25 7 25 29 0 43 -28 14 -31 13 -31
-13z"/>
<path d="M3410 1399 c0 -5 5 -7 10 -4 6 3 10 8 10 11 0 2 -4 4 -10 4 -5 0 -10
-5 -10 -11z"/>
<path d="M2647 1362 c-21 -23 -22 -42 -3 -42 14 0 46 36 46 52 0 15 -27 8 -43
-10z"/>
<path d="M2231 1327 c-9 -12 -10 -21 -2 -36 6 -11 11 -30 11 -43 0 -13 4 -29
9 -37 6 -9 10 6 12 44 4 66 -9 97 -30 72z"/>
<path d="M2585 1300 c-8 -13 5 -13 25 0 13 8 13 10 -2 10 -9 0 -20 -4 -23 -10z"/>
<path d="M2660 1300 c0 -5 5 -10 11 -10 5 0 7 5 4 10 -3 6 -8 10 -11 10 -2 0
-4 -4 -4 -10z"/>
<path d="M2320 1167 c-15 -12 -34 -32 -45 -44 -17 -22 -18 -24 0 -63 26 -58
51 -51 47 13 -3 32 2 56 13 73 23 36 15 48 -15 21z"/>
<path d="M2850 1142 c0 -5 10 -17 22 -28 20 -18 21 -18 15 -1 -4 10 -7 23 -7
28 0 5 -7 9 -15 9 -8 0 -15 -4 -15 -8z"/>
<path d="M2775 1129 c-4 -5 1 -19 11 -30 16 -18 19 -18 27 -4 17 31 -20 65
-38 34z"/>
<path d="M2115 1100 c3 -5 8 -10 11 -10 2 0 4 5 4 10 0 6 -5 10 -11 10 -5 0
-7 -4 -4 -10z"/>
<path d="M2040 1071 c0 -10 30 -24 37 -17 3 3 2 9 -2 15 -8 13 -35 15 -35 2z"/>
<path d="M2150 1036 c0 -9 7 -16 16 -16 9 0 14 5 12 12 -6 18 -28 21 -28 4z"/>
<path d="M2678 811 c-9 -3 -35 -30 -59 -58 -23 -29 -46 -53 -51 -53 -16 0 -48
-35 -48 -52 0 -28 69 -44 106 -25 16 8 35 12 42 10 7 -3 33 -2 58 2 35 5 47
12 58 34 13 24 12 31 -1 59 -9 18 -25 38 -37 44 -12 6 -28 18 -36 28 -9 11
-22 15 -32 11z m52 -115 c0 -13 -8 -30 -17 -37 -15 -12 -16 -12 -10 4 4 10 7
27 7 38 0 10 5 19 10 19 6 0 10 -11 10 -24z m-43 -42 c-3 -3 -12 -4 -19 -1 -8
3 -5 6 6 6 11 1 17 -2 13 -5z"/>
<path d="M3007 794 c-4 -4 -7 -17 -7 -28 0 -19 1 -19 17 -3 12 11 14 20 7 27
-6 6 -13 7 -17 4z"/>
<path d="M4690 4410 c0 -13 7 -20 20 -20 13 0 20 7 20 20 0 13 -7 20 -20 20
-13 0 -20 -7 -20 -20z"/>
<path d="M4762 958 c-16 -16 -15 -24 4 -43 12 -12 19 -13 30 -4 19 16 17 36
-4 48 -13 7 -23 6 -30 -1z"/>
<path d="M210 905 c0 -8 7 -15 15 -15 8 0 15 7 15 15 0 8 -7 15 -15 15 -8 0
-15 -7 -15 -15z"/>
<path d="M3794 125 c-4 -9 -2 -21 4 -27 15 -15 44 -1 40 19 -4 23 -36 29 -44
8z"/>
<path d="M4838 3 c12 -2 32 -2 45 0 12 2 2 4 -23 4 -25 0 -35 -2 -22 -4z"/>
</g>
</svg>
